<?xml version="1.0" encoding="utf-8" standalone="no"?>
<!DOCTYPE svg PUBLIC "-//W3C//DTD SVG 1.1//EN"
  "http://www.w3.org/Graphics/SVG/1.1/DTD/svg11.dtd">
<!-- Created with matplotlib (http://matplotlib.org/) -->
<svg height="144pt" version="1.1" viewBox="0 0 864 144" width="864pt" xmlns="http://www.w3.org/2000/svg" xmlns:xlink="http://www.w3.org/1999/xlink">
 <defs>
  <style type="text/css">
*{stroke-linecap:butt;stroke-linejoin:round;}
  </style>
 </defs>
 <g id="figure_1">
  <g id="patch_1">
   <path d="M 0 144 
L 864 144 
L 864 0 
L 0 0 
z
" style="fill:none;"/>
  </g>
  <g id="axes_1">
   <g id="LineCollection_1">
    <path clip-path="url(#pc9958317d5)" d="M 526.5 50.544 
L 414.9 93.7872 
" style="fill:none;stroke:#808080;"/>
    <path clip-path="url(#pc9958317d5)" d="M 526.5 50.544 
L 421.875 93.7872 
" style="fill:none;stroke:#808080;"/>
    <path clip-path="url(#pc9958317d5)" d="M 526.5 50.544 
L 428.85 93.7872 
" style="fill:none;stroke:#808080;"/>
    <path clip-path="url(#pc9958317d5)" d="M 526.5 50.544 
L 442.8 93.7872 
" style="fill:none;stroke:#808080;"/>
    <path clip-path="url(#pc9958317d5)" d="M 170.775 50.544 
L 463.725 93.7872 
" style="fill:none;stroke:#808080;"/>
    <path clip-path="url(#pc9958317d5)" d="M 170.775 50.544 
L 484.65 93.7872 
" style="fill:none;stroke:#808080;"/>
    <path clip-path="url(#pc9958317d5)" d="M 212.625 50.544 
L 463.725 93.7872 
" style="fill:none;stroke:#808080;"/>
    <path clip-path="url(#pc9958317d5)" d="M 387 50.544 
L 463.725 93.7872 
" style="fill:none;stroke:#808080;"/>
    <path clip-path="url(#pc9958317d5)" d="M 393.975 50.544 
L 463.725 93.7872 
" style="fill:none;stroke:#808080;"/>
    <path clip-path="url(#pc9958317d5)" d="M 407.925 50.544 
L 442.8 93.7872 
" style="fill:none;stroke:#808080;"/>
   </g>
   <g id="text_1">
    <g clip-path="url(#pc9958317d5)">
     <!-- Q -->
     <defs>
      <path d="M 31.984375 -1.3125 
Q 31.640625 -1.3125 31 -1.359375 
Q 30.375 -1.421875 29.984375 -1.421875 
Q 17.78125 -1.421875 11.75 7.953125 
Q 5.71875 17.328125 5.71875 36.375 
Q 5.71875 55.46875 11.75 64.84375 
Q 17.78125 74.21875 30.078125 74.21875 
Q 42.4375 74.21875 48.46875 64.84375 
Q 54.5 55.46875 54.5 36.375 
Q 54.5 22.015625 51.140625 13.25 
Q 47.796875 4.5 41.015625 0.984375 
L 50.78125 -8.296875 
L 43.40625 -13.1875 
z
M 44.1875 36.375 
Q 44.1875 52.4375 40.890625 59.328125 
Q 37.59375 66.21875 30.078125 66.21875 
Q 22.609375 66.21875 19.3125 59.328125 
Q 16.015625 52.4375 16.015625 36.375 
Q 16.015625 20.359375 19.3125 13.46875 
Q 22.609375 6.59375 30.078125 6.59375 
Q 37.59375 6.59375 40.890625 13.453125 
Q 44.1875 20.3125 44.1875 36.375 
z
" id="DejaVuSansMono-51"/>
     </defs>
     <g transform="translate(446.162813 48.343125)scale(0.12 -0.12)">
      <use xlink:href="#DejaVuSansMono-51"/>
     </g>
    </g>
   </g>
   <g id="text_2">
    <g clip-path="url(#pc9958317d5)">
     <!-- F -->
     <defs>
      <path d="M 11.375 72.90625 
L 54.296875 72.90625 
L 54.296875 64.59375 
L 21.296875 64.59375 
L 21.296875 43.109375 
L 51.21875 43.109375 
L 51.21875 34.8125 
L 21.296875 34.8125 
L 21.296875 0 
L 11.375 0 
z
" id="DejaVuSansMono-46"/>
     </defs>
     <g transform="translate(578.687812 48.343125)scale(0.12 -0.12)">
      <use xlink:href="#DejaVuSansMono-46"/>
     </g>
    </g>
   </g>
   <g id="text_3">
    <g clip-path="url(#pc9958317d5)">
     <!-- G -->
     <defs>
      <path d="M 53.90625 6 
Q 49.953125 2.34375 45 0.453125 
Q 40.046875 -1.421875 34.28125 -1.421875 
Q 20.40625 -1.421875 12.6875 8.515625 
Q 4.984375 18.453125 4.984375 36.375 
Q 4.984375 54.25 12.796875 64.234375 
Q 20.609375 74.21875 34.515625 74.21875 
Q 39.109375 74.21875 43.3125 72.921875 
Q 47.515625 71.625 51.421875 69 
L 51.421875 58.890625 
Q 47.46875 62.640625 43.3125 64.421875 
Q 39.15625 66.21875 34.515625 66.21875 
Q 24.90625 66.21875 20.09375 58.765625 
Q 15.28125 51.3125 15.28125 36.375 
Q 15.28125 21.1875 19.9375 13.890625 
Q 24.609375 6.59375 34.28125 6.59375 
Q 37.546875 6.59375 40.015625 7.34375 
Q 42.484375 8.109375 44.484375 9.71875 
L 44.484375 29.296875 
L 33.890625 29.296875 
L 33.890625 37.40625 
L 53.90625 37.40625 
z
" id="DejaVuSansMono-47"/>
     </defs>
     <g transform="translate(404.312813 103.783125)scale(0.12 -0.12)">
      <use xlink:href="#DejaVuSansMono-47"/>
     </g>
    </g>
   </g>
   <g id="text_4">
    <g clip-path="url(#pc9958317d5)">
     <!-- I -->
     <defs>
      <path d="M 9.8125 72.90625 
L 50.296875 72.90625 
L 50.296875 64.59375 
L 35.015625 64.59375 
L 35.015625 8.296875 
L 50.296875 8.296875 
L 50.296875 0 
L 9.8125 0 
L 9.8125 8.296875 
L 25.09375 8.296875 
L 25.09375 64.59375 
L 9.8125 64.59375 
z
" id="DejaVuSansMono-49"/>
     </defs>
     <g transform="translate(697.262812 48.343125)scale(0.12 -0.12)">
      <use xlink:href="#DejaVuSansMono-49"/>
     </g>
    </g>
   </g>
   <g id="text_5">
    <g clip-path="url(#pc9958317d5)">
     <!-- S -->
     <defs>
      <path d="M 49.421875 70.40625 
L 49.421875 60.40625 
Q 44.921875 63.28125 40.40625 64.75 
Q 35.890625 66.21875 31.296875 66.21875 
Q 24.3125 66.21875 20.265625 62.96875 
Q 16.21875 59.71875 16.21875 54.203125 
Q 16.21875 49.359375 18.875 46.8125 
Q 21.53125 44.28125 28.8125 42.578125 
L 33.984375 41.40625 
Q 44.234375 39.015625 48.921875 33.890625 
Q 53.609375 28.765625 53.609375 19.921875 
Q 53.609375 9.515625 47.15625 4.046875 
Q 40.71875 -1.421875 28.421875 -1.421875 
Q 23.296875 -1.421875 18.109375 -0.3125 
Q 12.9375 0.78125 7.71875 2.984375 
L 7.71875 13.484375 
Q 13.328125 9.90625 18.328125 8.25 
Q 23.34375 6.59375 28.421875 6.59375 
Q 35.890625 6.59375 40.03125 9.9375 
Q 44.1875 13.28125 44.1875 19.28125 
Q 44.1875 24.75 41.328125 27.625 
Q 38.484375 30.515625 31.390625 32.078125 
L 26.125 33.296875 
Q 15.96875 35.59375 11.375 40.234375 
Q 6.78125 44.875 6.78125 52.6875 
Q 6.78125 62.453125 13.34375 68.328125 
Q 19.921875 74.21875 30.8125 74.21875 
Q 35.015625 74.21875 39.640625 73.265625 
Q 44.28125 72.3125 49.421875 70.40625 
z
" id="DejaVuSansMono-53"/>
     </defs>
     <g transform="translate(334.562813 48.343125)scale(0.12 -0.12)">
      <use xlink:href="#DejaVuSansMono-53"/>
     </g>
    </g>
   </g>
   <g id="text_6">
    <g clip-path="url(#pc9958317d5)">
     <!-- T -->
     <defs>
      <path d="M 2.296875 72.90625 
L 57.90625 72.90625 
L 57.90625 64.59375 
L 35.109375 64.59375 
L 35.109375 0 
L 25.203125 0 
L 25.203125 64.59375 
L 2.296875 64.59375 
z
" id="DejaVuSansMono-54"/>
     </defs>
     <g transform="translate(425.237813 48.343125)scale(0.12 -0.12)">
      <use xlink:href="#DejaVuSansMono-54"/>
     </g>
    </g>
   </g>
   <g id="text_7">
    <g clip-path="url(#pc9958317d5)">
     <!-- Y -->
     <defs>
      <path d="M 1.8125 72.90625 
L 12.3125 72.90625 
L 30.078125 40.71875 
L 47.796875 72.90625 
L 58.40625 72.90625 
L 35.015625 32.71875 
L 35.015625 0 
L 25.09375 0 
L 25.09375 32.71875 
z
" id="DejaVuSansMono-59"/>
     </defs>
     <g transform="translate(732.137812 48.343125)scale(0.12 -0.12)">
      <use xlink:href="#DejaVuSansMono-59"/>
     </g>
    </g>
   </g>
   <g id="text_8">
    <g clip-path="url(#pc9958317d5)">
     <!-- K -->
     <defs>
      <path d="M 6.6875 72.90625 
L 16.609375 72.90625 
L 16.609375 40.484375 
L 47.40625 72.90625 
L 58.984375 72.90625 
L 30.609375 43.109375 
L 59.8125 0 
L 47.90625 0 
L 24.125 36.53125 
L 16.609375 28.515625 
L 16.609375 0 
L 6.6875 0 
z
" id="DejaVuSansMono-4b"/>
     </defs>
     <g transform="translate(627.512812 48.343125)scale(0.12 -0.12)">
      <use xlink:href="#DejaVuSansMono-4b"/>
     </g>
    </g>
   </g>
   <g id="text_9">
    <g clip-path="url(#pc9958317d5)">
     <!-- S -->
     <g transform="translate(669.362813 48.343125)scale(0.12 -0.12)">
      <use xlink:href="#DejaVuSansMono-53"/>
     </g>
    </g>
   </g>
   <g id="text_10">
    <g clip-path="url(#pc9958317d5)">
     <!-- L -->
     <defs>
      <path d="M 10.5 72.90625 
L 20.40625 72.90625 
L 20.40625 8.296875 
L 55.609375 8.296875 
L 55.609375 0 
L 10.5 0 
z
" id="DejaVuSansMono-4c"/>
     </defs>
     <g transform="translate(320.612813 48.343125)scale(0.12 -0.12)">
      <use xlink:href="#DejaVuSansMono-4c"/>
     </g>
    </g>
   </g>
   <g id="text_11">
    <g clip-path="url(#pc9958317d5)">
     <!-- G -->
     <g transform="translate(515.912812 48.343125)scale(0.12 -0.12)">
      <use xlink:href="#DejaVuSansMono-47"/>
     </g>
    </g>
   </g>
   <g id="text_12">
    <g clip-path="url(#pc9958317d5)">
     <!-- F -->
     <g transform="translate(299.687813 48.343125)scale(0.12 -0.12)">
      <use xlink:href="#DejaVuSansMono-46"/>
     </g>
    </g>
   </g>
   <g id="text_13">
    <g clip-path="url(#pc9958317d5)">
     <!-- G -->
     <g transform="translate(264.812813 48.343125)scale(0.12 -0.12)">
      <use xlink:href="#DejaVuSansMono-47"/>
     </g>
    </g>
   </g>
   <g id="text_14">
    <g clip-path="url(#pc9958317d5)">
     <!-- T -->
     <g transform="translate(662.387812 48.343125)scale(0.12 -0.12)">
      <use xlink:href="#DejaVuSansMono-54"/>
     </g>
    </g>
   </g>
   <g id="text_15">
    <g clip-path="url(#pc9958317d5)">
     <!-- G -->
     <g transform="translate(418.262812 103.783125)scale(0.12 -0.12)">
      <use xlink:href="#DejaVuSansMono-47"/>
     </g>
    </g>
   </g>
   <g id="text_16">
    <g clip-path="url(#pc9958317d5)">
     <!-- D -->
     <defs>
      <path d="M 21.296875 8.109375 
Q 33.734375 8.109375 38.671875 14.234375 
Q 43.609375 20.359375 43.609375 36.375 
Q 43.609375 52.546875 38.703125 58.671875 
Q 33.796875 64.796875 21.296875 64.796875 
L 16.609375 64.796875 
L 16.609375 8.109375 
z
M 21.484375 72.90625 
Q 38.1875 72.90625 46.09375 64.015625 
Q 54 55.125 54 36.375 
Q 54 17.71875 46.09375 8.859375 
Q 38.1875 0 21.484375 0 
L 6.6875 0 
L 6.6875 72.90625 
z
" id="DejaVuSansMono-44"/>
     </defs>
     <g transform="translate(613.562812 48.343125)scale(0.12 -0.12)">
      <use xlink:href="#DejaVuSansMono-44"/>
     </g>
    </g>
   </g>
   <g id="text_17">
    <g clip-path="url(#pc9958317d5)">
     <!-- R -->
     <defs>
      <path d="M 37.109375 34.421875 
Q 40.921875 33.453125 43.609375 30.734375 
Q 46.296875 28.03125 50.296875 19.921875 
L 60.203125 0 
L 49.609375 0 
L 40.921875 18.40625 
Q 37.15625 26.265625 34.15625 28.53125 
Q 31.15625 30.8125 26.3125 30.8125 
L 16.890625 30.8125 
L 16.890625 0 
L 6.984375 0 
L 6.984375 72.90625 
L 27.296875 72.90625 
Q 39.3125 72.90625 45.703125 67.484375 
Q 52.09375 62.0625 52.09375 51.8125 
Q 52.09375 44.578125 48.15625 40.015625 
Q 44.234375 35.453125 37.109375 34.421875 
z
M 16.890625 64.796875 
L 16.890625 38.921875 
L 27.6875 38.921875 
Q 34.765625 38.921875 38.234375 42.09375 
Q 41.703125 45.265625 41.703125 51.8125 
Q 41.703125 58.109375 38.015625 61.453125 
Q 34.328125 64.796875 27.296875 64.796875 
z
" id="DejaVuSansMono-52"/>
     </defs>
     <g transform="translate(501.962812 48.343125)scale(0.12 -0.12)">
      <use xlink:href="#DejaVuSansMono-52"/>
     </g>
    </g>
   </g>
   <g id="text_18">
    <g clip-path="url(#pc9958317d5)">
     <!-- F -->
     <g transform="translate(460.112813 48.343125)scale(0.12 -0.12)">
      <use xlink:href="#DejaVuSansMono-46"/>
     </g>
    </g>
   </g>
   <g id="text_19">
    <g clip-path="url(#pc9958317d5)">
     <!-- G -->
     <g transform="translate(711.212813 48.343125)scale(0.12 -0.12)">
      <use xlink:href="#DejaVuSansMono-47"/>
     </g>
    </g>
   </g>
   <g id="text_20">
    <g clip-path="url(#pc9958317d5)">
     <!-- G -->
     <g transform="translate(536.837813 48.343125)scale(0.12 -0.12)">
      <use xlink:href="#DejaVuSansMono-47"/>
     </g>
    </g>
   </g>
   <g id="text_21">
    <g clip-path="url(#pc9958317d5)">
     <!-- L -->
     <g transform="translate(655.412812 48.343125)scale(0.12 -0.12)">
      <use xlink:href="#DejaVuSansMono-4c"/>
     </g>
    </g>
   </g>
   <g id="text_22">
    <g clip-path="url(#pc9958317d5)">
     <!-- C -->
     <defs>
      <path d="M 52.390625 2.59375 
Q 48.640625 0.59375 44.671875 -0.40625 
Q 40.71875 -1.421875 36.28125 -1.421875 
Q 22.265625 -1.421875 14.515625 8.484375 
Q 6.78125 18.40625 6.78125 36.375 
Q 6.78125 54.25 14.5625 64.234375 
Q 22.359375 74.21875 36.28125 74.21875 
Q 40.71875 74.21875 44.671875 73.21875 
Q 48.640625 72.21875 52.390625 70.21875 
L 52.390625 60.109375 
Q 48.78125 63.09375 44.625 64.65625 
Q 40.484375 66.21875 36.28125 66.21875 
Q 26.65625 66.21875 21.875 58.796875 
Q 17.09375 51.375 17.09375 36.375 
Q 17.09375 21.4375 21.875 14.015625 
Q 26.65625 6.59375 36.28125 6.59375 
Q 40.578125 6.59375 44.703125 8.15625 
Q 48.828125 9.71875 52.390625 12.703125 
z
" id="DejaVuSansMono-43"/>
     </defs>
     <g transform="translate(481.037812 48.343125)scale(0.12 -0.12)">
      <use xlink:href="#DejaVuSansMono-43"/>
     </g>
    </g>
   </g>
   <g id="text_23">
    <g clip-path="url(#pc9958317d5)">
     <!-- G -->
     <g transform="translate(648.437812 48.343125)scale(0.12 -0.12)">
      <use xlink:href="#DejaVuSansMono-47"/>
     </g>
    </g>
   </g>
   <g id="text_24">
    <g clip-path="url(#pc9958317d5)">
     <!-- A -->
     <defs>
      <path d="M 30.078125 64.203125 
L 19.671875 26.90625 
L 40.484375 26.90625 
z
M 24.125 72.90625 
L 36.078125 72.90625 
L 58.40625 0 
L 48.1875 0 
L 42.828125 19 
L 17.28125 19 
L 12.015625 0 
L 1.8125 0 
z
" id="DejaVuSansMono-41"/>
     </defs>
     <g transform="translate(599.612813 48.343125)scale(0.12 -0.12)">
      <use xlink:href="#DejaVuSansMono-41"/>
     </g>
    </g>
   </g>
   <g id="text_25">
    <g clip-path="url(#pc9958317d5)">
     <!-- A -->
     <g transform="translate(390.362813 48.343125)scale(0.12 -0.12)">
      <use xlink:href="#DejaVuSansMono-41"/>
     </g>
    </g>
   </g>
   <g id="text_26">
    <g clip-path="url(#pc9958317d5)">
     <!-- S -->
     <g transform="translate(453.137812 103.783125)scale(0.12 -0.12)">
      <use xlink:href="#DejaVuSansMono-53"/>
     </g>
    </g>
   </g>
   <g id="text_27">
    <g clip-path="url(#pc9958317d5)">
     <!-- D -->
     <g transform="translate(508.937812 48.343125)scale(0.12 -0.12)">
      <use xlink:href="#DejaVuSansMono-44"/>
     </g>
    </g>
   </g>
   <g id="text_28">
    <g clip-path="url(#pc9958317d5)">
     <!-- S -->
     <g transform="translate(146.237813 48.343125)scale(0.12 -0.12)">
      <use xlink:href="#DejaVuSansMono-53"/>
     </g>
    </g>
   </g>
   <g id="text_29">
    <g clip-path="url(#pc9958317d5)">
     <!-- A -->
     <g transform="translate(411.287813 48.343125)scale(0.12 -0.12)">
      <use xlink:href="#DejaVuSansMono-41"/>
     </g>
    </g>
   </g>
   <g id="text_30">
    <g clip-path="url(#pc9958317d5)">
     <!-- Y -->
     <g transform="translate(202.037813 48.343125)scale(0.12 -0.12)">
      <use xlink:href="#DejaVuSansMono-59"/>
     </g>
    </g>
   </g>
   <g id="text_31">
    <g clip-path="url(#pc9958317d5)">
     <!-- L -->
     <g transform="translate(167.162813 48.343125)scale(0.12 -0.12)">
      <use xlink:href="#DejaVuSansMono-4c"/>
     </g>
    </g>
   </g>
   <g id="text_32">
    <g clip-path="url(#pc9958317d5)">
     <!-- E -->
     <defs>
      <path d="M 9.625 72.90625 
L 52.875 72.90625 
L 52.875 64.59375 
L 19.484375 64.59375 
L 19.484375 43.015625 
L 51.421875 43.015625 
L 51.421875 34.71875 
L 19.484375 34.71875 
L 19.484375 8.296875 
L 53.8125 8.296875 
L 53.8125 0 
L 9.625 0 
z
" id="DejaVuSansMono-45"/>
     </defs>
     <g transform="translate(236.912813 48.343125)scale(0.12 -0.12)">
      <use xlink:href="#DejaVuSansMono-45"/>
     </g>
    </g>
   </g>
   <g id="text_33">
    <g clip-path="url(#pc9958317d5)">
     <!-- L -->
     <g transform="translate(494.987813 48.343125)scale(0.12 -0.12)">
      <use xlink:href="#DejaVuSansMono-4c"/>
     </g>
    </g>
   </g>
   <g id="text_34">
    <g clip-path="url(#pc9958317d5)">
     <!-- P -->
     <defs>
      <path d="M 19.484375 64.796875 
L 19.484375 37.40625 
L 30.90625 37.40625 
Q 37.75 37.40625 41.578125 41.015625 
Q 45.40625 44.625 45.40625 51.125 
Q 45.40625 57.625 41.59375 61.203125 
Q 37.796875 64.796875 30.90625 64.796875 
z
M 9.625 72.90625 
L 30.90625 72.90625 
Q 43.109375 72.90625 49.40625 67.359375 
Q 55.71875 61.8125 55.71875 51.125 
Q 55.71875 40.328125 49.4375 34.8125 
Q 43.171875 29.296875 30.90625 29.296875 
L 19.484375 29.296875 
L 19.484375 0 
L 9.625 0 
z
" id="DejaVuSansMono-50"/>
     </defs>
     <g transform="translate(481.037812 103.783125)scale(0.12 -0.12)">
      <use xlink:href="#DejaVuSansMono-50"/>
     </g>
    </g>
   </g>
   <g id="text_35">
    <g clip-path="url(#pc9958317d5)">
     <!-- D -->
     <g transform="translate(160.187813 48.343125)scale(0.12 -0.12)">
      <use xlink:href="#DejaVuSansMono-44"/>
     </g>
    </g>
   </g>
   <g id="text_36">
    <g clip-path="url(#pc9958317d5)">
     <!-- R -->
     <g transform="translate(522.887812 48.343125)scale(0.12 -0.12)">
      <use xlink:href="#DejaVuSansMono-52"/>
     </g>
    </g>
   </g>
   <g id="text_37">
    <g clip-path="url(#pc9958317d5)">
     <!-- S -->
     <g transform="translate(174.137812 48.343125)scale(0.12 -0.12)">
      <use xlink:href="#DejaVuSansMono-53"/>
     </g>
    </g>
   </g>
   <g id="text_38">
    <g clip-path="url(#pc9958317d5)">
     <!-- N -->
     <defs>
      <path d="M 6.78125 72.90625 
L 19.28125 72.90625 
L 43.890625 12.890625 
L 43.890625 72.90625 
L 53.421875 72.90625 
L 53.421875 0 
L 40.921875 0 
L 16.3125 60.015625 
L 16.3125 0 
L 6.78125 0 
z
" id="DejaVuSansMono-4e"/>
     </defs>
     <g transform="translate(215.987813 48.343125)scale(0.12 -0.12)">
      <use xlink:href="#DejaVuSansMono-4e"/>
     </g>
    </g>
   </g>
   <g id="text_39">
    <g clip-path="url(#pc9958317d5)">
     <!-- S -->
     <g transform="translate(425.237813 103.783125)scale(0.12 -0.12)">
      <use xlink:href="#DejaVuSansMono-53"/>
     </g>
    </g>
   </g>
   <g id="text_40">
    <g clip-path="url(#pc9958317d5)">
     <!-- G -->
     <g transform="translate(222.962813 48.343125)scale(0.12 -0.12)">
      <use xlink:href="#DejaVuSansMono-47"/>
     </g>
    </g>
   </g>
   <g id="text_41">
    <g clip-path="url(#pc9958317d5)">
     <!-- S -->
     <g transform="translate(376.412813 48.343125)scale(0.12 -0.12)">
      <use xlink:href="#DejaVuSansMono-53"/>
     </g>
    </g>
   </g>
   <g id="text_42">
    <g clip-path="url(#pc9958317d5)">
     <!-- E -->
     <g transform="translate(467.087812 103.783125)scale(0.12 -0.12)">
      <use xlink:href="#DejaVuSansMono-45"/>
     </g>
    </g>
   </g>
   <g id="text_43">
    <g clip-path="url(#pc9958317d5)">
     <!-- Q -->
     <g transform="translate(292.712813 48.343125)scale(0.12 -0.12)">
      <use xlink:href="#DejaVuSansMono-51"/>
     </g>
    </g>
   </g>
   <g id="text_44">
    <g clip-path="url(#pc9958317d5)">
     <!-- A -->
     <g transform="translate(250.862813 48.343125)scale(0.12 -0.12)">
      <use xlink:href="#DejaVuSansMono-41"/>
     </g>
    </g>
   </g>
   <g id="text_45">
    <g clip-path="url(#pc9958317d5)">
     <!-- D -->
     <g transform="translate(550.787812 48.343125)scale(0.12 -0.12)">
      <use xlink:href="#DejaVuSansMono-44"/>
     </g>
    </g>
   </g>
   <g id="text_46">
    <g clip-path="url(#pc9958317d5)">
     <!-- Y -->
     <g transform="translate(453.137812 48.343125)scale(0.12 -0.12)">
      <use xlink:href="#DejaVuSansMono-59"/>
     </g>
    </g>
   </g>
   <g id="text_47">
    <g clip-path="url(#pc9958317d5)">
     <!-- T -->
     <g transform="translate(718.187812 48.343125)scale(0.12 -0.12)">
      <use xlink:href="#DejaVuSansMono-54"/>
     </g>
    </g>
   </g>
   <g id="text_48">
    <g clip-path="url(#pc9958317d5)">
     <!-- S -->
     <g transform="translate(397.337813 103.783125)scale(0.12 -0.12)">
      <use xlink:href="#DejaVuSansMono-53"/>
     </g>
    </g>
   </g>
   <g id="text_49">
    <g clip-path="url(#pc9958317d5)">
     <!-- S -->
     <g transform="translate(704.237813 48.343125)scale(0.12 -0.12)">
      <use xlink:href="#DejaVuSansMono-53"/>
     </g>
    </g>
   </g>
   <g id="text_50">
    <g clip-path="url(#pc9958317d5)">
     <!-- R -->
     <g transform="translate(620.537812 48.343125)scale(0.12 -0.12)">
      <use xlink:href="#DejaVuSansMono-52"/>
     </g>
    </g>
   </g>
   <g id="text_51">
    <g clip-path="url(#pc9958317d5)">
     <!-- Q -->
     <g transform="translate(439.187813 103.783125)scale(0.12 -0.12)">
      <use xlink:href="#DejaVuSansMono-51"/>
     </g>
    </g>
   </g>
   <g id="text_52">
    <g clip-path="url(#pc9958317d5)">
     <!-- V -->
     <defs>
      <path d="M 30.078125 8.296875 
L 47.21875 72.90625 
L 57.421875 72.90625 
L 36.078125 0 
L 24.125 0 
L 2.78125 72.90625 
L 12.984375 72.90625 
z
" id="DejaVuSansMono-56"/>
     </defs>
     <g transform="translate(397.337813 48.343125)scale(0.12 -0.12)">
      <use xlink:href="#DejaVuSansMono-56"/>
     </g>
    </g>
   </g>
   <g id="text_53">
    <g clip-path="url(#pc9958317d5)">
     <!-- F -->
     <g transform="translate(432.212812 103.783125)scale(0.12 -0.12)">
      <use xlink:href="#DejaVuSansMono-46"/>
     </g>
    </g>
   </g>
   <g id="text_54">
    <g clip-path="url(#pc9958317d5)">
     <!-- L -->
     <g transform="translate(564.737813 48.343125)scale(0.12 -0.12)">
      <use xlink:href="#DejaVuSansMono-4c"/>
     </g>
    </g>
   </g>
   <g id="text_55">
    <g clip-path="url(#pc9958317d5)">
     <!-- A -->
     <g transform="translate(362.462813 48.343125)scale(0.12 -0.12)">
      <use xlink:href="#DejaVuSansMono-41"/>
     </g>
    </g>
   </g>
   <g id="text_56">
    <g clip-path="url(#pc9958317d5)">
     <!-- G -->
     <g transform="translate(529.862813 48.343125)scale(0.12 -0.12)">
      <use xlink:href="#DejaVuSansMono-47"/>
     </g>
    </g>
   </g>
   <g id="text_57">
    <g clip-path="url(#pc9958317d5)">
     <!-- S -->
     <g transform="translate(369.437813 48.343125)scale(0.12 -0.12)">
      <use xlink:href="#DejaVuSansMono-53"/>
     </g>
    </g>
   </g>
   <g id="text_58">
    <g clip-path="url(#pc9958317d5)">
     <!-- K -->
     <g transform="translate(257.837813 48.343125)scale(0.12 -0.12)">
      <use xlink:href="#DejaVuSansMono-4b"/>
     </g>
    </g>
   </g>
   <g id="text_59">
    <g clip-path="url(#pc9958317d5)">
     <!-- E -->
     <g transform="translate(411.287813 103.783125)scale(0.12 -0.12)">
      <use xlink:href="#DejaVuSansMono-45"/>
     </g>
    </g>
   </g>
   <g id="text_60">
    <g clip-path="url(#pc9958317d5)">
     <!-- E -->
     <g transform="translate(606.587813 48.343125)scale(0.12 -0.12)">
      <use xlink:href="#DejaVuSansMono-45"/>
     </g>
    </g>
   </g>
   <g id="text_61">
    <g clip-path="url(#pc9958317d5)">
     <!-- D -->
     <g transform="translate(313.637812 48.343125)scale(0.12 -0.12)">
      <use xlink:href="#DejaVuSansMono-44"/>
     </g>
    </g>
   </g>
   <g id="text_62">
    <g clip-path="url(#pc9958317d5)">
     <!-- Q -->
     <g transform="translate(285.737813 48.343125)scale(0.12 -0.12)">
      <use xlink:href="#DejaVuSansMono-51"/>
     </g>
    </g>
   </g>
   <g id="text_63">
    <g clip-path="url(#pc9958317d5)">
     <!-- H -->
     <defs>
      <path d="M 6.6875 72.90625 
L 16.609375 72.90625 
L 16.609375 43.015625 
L 43.609375 43.015625 
L 43.609375 72.90625 
L 53.515625 72.90625 
L 53.515625 0 
L 43.609375 0 
L 43.609375 34.71875 
L 16.609375 34.71875 
L 16.609375 0 
L 6.6875 0 
z
" id="DejaVuSansMono-48"/>
     </defs>
     <g transform="translate(327.587813 48.343125)scale(0.12 -0.12)">
      <use xlink:href="#DejaVuSansMono-48"/>
     </g>
    </g>
   </g>
   <g id="text_64">
    <g clip-path="url(#pc9958317d5)">
     <!-- Q -->
     <g transform="translate(195.062813 48.343125)scale(0.12 -0.12)">
      <use xlink:href="#DejaVuSansMono-51"/>
     </g>
    </g>
   </g>
   <g id="text_65">
    <g clip-path="url(#pc9958317d5)">
     <!-- T -->
     <g transform="translate(571.712813 48.343125)scale(0.12 -0.12)">
      <use xlink:href="#DejaVuSansMono-54"/>
     </g>
    </g>
   </g>
   <g id="text_66">
    <g clip-path="url(#pc9958317d5)">
     <!-- A -->
     <g transform="translate(543.812812 48.343125)scale(0.12 -0.12)">
      <use xlink:href="#DejaVuSansMono-41"/>
     </g>
    </g>
   </g>
   <g id="text_67">
    <g clip-path="url(#pc9958317d5)">
     <!-- G -->
     <g transform="translate(418.262812 48.343125)scale(0.12 -0.12)">
      <use xlink:href="#DejaVuSansMono-47"/>
     </g>
    </g>
   </g>
   <g id="text_68">
    <g clip-path="url(#pc9958317d5)">
     <!-- T -->
     <g transform="translate(690.287812 48.343125)scale(0.12 -0.12)">
      <use xlink:href="#DejaVuSansMono-54"/>
     </g>
    </g>
   </g>
   <g id="text_69">
    <g clip-path="url(#pc9958317d5)">
     <!-- Y -->
     <g transform="translate(209.012813 48.343125)scale(0.12 -0.12)">
      <use xlink:href="#DejaVuSansMono-59"/>
     </g>
    </g>
   </g>
   <g id="text_70">
    <g clip-path="url(#pc9958317d5)">
     <!-- R -->
     <g transform="translate(243.887813 48.343125)scale(0.12 -0.12)">
      <use xlink:href="#DejaVuSansMono-52"/>
     </g>
    </g>
   </g>
   <g id="text_71">
    <g clip-path="url(#pc9958317d5)">
     <!-- P -->
     <g transform="translate(446.162813 103.783125)scale(0.12 -0.12)">
      <use xlink:href="#DejaVuSansMono-50"/>
     </g>
    </g>
   </g>
   <g id="text_72">
    <g clip-path="url(#pc9958317d5)">
     <!-- E -->
     <g transform="translate(439.187813 48.343125)scale(0.12 -0.12)">
      <use xlink:href="#DejaVuSansMono-45"/>
     </g>
    </g>
   </g>
   <g id="text_73">
    <g clip-path="url(#pc9958317d5)">
     <!-- I -->
     <g transform="translate(488.012812 48.343125)scale(0.12 -0.12)">
      <use xlink:href="#DejaVuSansMono-49"/>
     </g>
    </g>
   </g>
   <g id="text_74">
    <g clip-path="url(#pc9958317d5)">
     <!-- C -->
     <g transform="translate(355.487813 48.343125)scale(0.12 -0.12)">
      <use xlink:href="#DejaVuSansMono-43"/>
     </g>
    </g>
   </g>
   <g id="text_75">
    <g clip-path="url(#pc9958317d5)">
     <!-- G -->
     <g transform="translate(153.212813 48.343125)scale(0.12 -0.12)">
      <use xlink:href="#DejaVuSansMono-47"/>
     </g>
    </g>
   </g>
   <g id="text_76">
    <g clip-path="url(#pc9958317d5)">
     <!-- S -->
     <g transform="translate(404.312813 48.343125)scale(0.12 -0.12)">
      <use xlink:href="#DejaVuSansMono-53"/>
     </g>
    </g>
   </g>
   <g id="text_77">
    <g clip-path="url(#pc9958317d5)">
     <!-- N -->
     <g transform="translate(474.062813 103.783125)scale(0.12 -0.12)">
      <use xlink:href="#DejaVuSansMono-4e"/>
     </g>
    </g>
   </g>
   <g id="text_78">
    <g clip-path="url(#pc9958317d5)">
     <!-- E -->
     <g transform="translate(229.937813 48.343125)scale(0.12 -0.12)">
      <use xlink:href="#DejaVuSansMono-45"/>
     </g>
    </g>
   </g>
   <g id="text_79">
    <g clip-path="url(#pc9958317d5)">
     <!-- G -->
     <g transform="translate(557.762812 48.343125)scale(0.12 -0.12)">
      <use xlink:href="#DejaVuSansMono-47"/>
     </g>
    </g>
   </g>
   <g id="text_80">
    <g clip-path="url(#pc9958317d5)">
     <!-- V -->
     <g transform="translate(383.387812 48.343125)scale(0.12 -0.12)">
      <use xlink:href="#DejaVuSansMono-56"/>
     </g>
    </g>
   </g>
   <g id="text_81">
    <g clip-path="url(#pc9958317d5)">
     <!-- Y -->
     <g transform="translate(432.212812 48.343125)scale(0.12 -0.12)">
      <use xlink:href="#DejaVuSansMono-59"/>
     </g>
    </g>
   </g>
   <g id="text_82">
    <g clip-path="url(#pc9958317d5)">
     <!-- P -->
     <g transform="translate(306.662812 48.343125)scale(0.12 -0.12)">
      <use xlink:href="#DejaVuSansMono-50"/>
     </g>
    </g>
   </g>
   <g id="text_83">
    <g clip-path="url(#pc9958317d5)">
     <!-- D -->
     <g transform="translate(725.162812 48.343125)scale(0.12 -0.12)">
      <use xlink:href="#DejaVuSansMono-44"/>
     </g>
    </g>
   </g>
   <g id="text_84">
    <g clip-path="url(#pc9958317d5)">
     <!-- Q -->
     <g transform="translate(460.112813 103.783125)scale(0.12 -0.12)">
      <use xlink:href="#DejaVuSansMono-51"/>
     </g>
    </g>
   </g>
   <g id="text_85">
    <!-- CDR1b -->
    <defs>
     <path d="M 64.40625 67.28125 
L 64.40625 56.890625 
Q 59.421875 61.53125 53.78125 63.8125 
Q 48.140625 66.109375 41.796875 66.109375 
Q 29.296875 66.109375 22.65625 58.46875 
Q 16.015625 50.828125 16.015625 36.375 
Q 16.015625 21.96875 22.65625 14.328125 
Q 29.296875 6.6875 41.796875 6.6875 
Q 48.140625 6.6875 53.78125 8.984375 
Q 59.421875 11.28125 64.40625 15.921875 
L 64.40625 5.609375 
Q 59.234375 2.09375 53.4375 0.328125 
Q 47.65625 -1.421875 41.21875 -1.421875 
Q 24.65625 -1.421875 15.125 8.703125 
Q 5.609375 18.84375 5.609375 36.375 
Q 5.609375 53.953125 15.125 64.078125 
Q 24.65625 74.21875 41.21875 74.21875 
Q 47.75 74.21875 53.53125 72.484375 
Q 59.328125 70.75 64.40625 67.28125 
z
" id="DejaVuSans-43"/>
     <path d="M 19.671875 64.796875 
L 19.671875 8.109375 
L 31.59375 8.109375 
Q 46.6875 8.109375 53.6875 14.9375 
Q 60.6875 21.78125 60.6875 36.53125 
Q 60.6875 51.171875 53.6875 57.984375 
Q 46.6875 64.796875 31.59375 64.796875 
z
M 9.8125 72.90625 
L 30.078125 72.90625 
Q 51.265625 72.90625 61.171875 64.09375 
Q 71.09375 55.28125 71.09375 36.53125 
Q 71.09375 17.671875 61.125 8.828125 
Q 51.171875 0 30.078125 0 
L 9.8125 0 
z
" id="DejaVuSans-44"/>
     <path d="M 44.390625 34.1875 
Q 47.5625 33.109375 50.5625 29.59375 
Q 53.5625 26.078125 56.59375 19.921875 
L 66.609375 0 
L 56 0 
L 46.6875 18.703125 
Q 43.0625 26.03125 39.671875 28.421875 
Q 36.28125 30.8125 30.421875 30.8125 
L 19.671875 30.8125 
L 19.671875 0 
L 9.8125 0 
L 9.8125 72.90625 
L 32.078125 72.90625 
Q 44.578125 72.90625 50.734375 67.671875 
Q 56.890625 62.453125 56.890625 51.90625 
Q 56.890625 45.015625 53.6875 40.46875 
Q 50.484375 35.9375 44.390625 34.1875 
z
M 19.671875 64.796875 
L 19.671875 38.921875 
L 32.078125 38.921875 
Q 39.203125 38.921875 42.84375 42.21875 
Q 46.484375 45.515625 46.484375 51.90625 
Q 46.484375 58.296875 42.84375 61.546875 
Q 39.203125 64.796875 32.078125 64.796875 
z
" id="DejaVuSans-52"/>
     <path d="M 12.40625 8.296875 
L 28.515625 8.296875 
L 28.515625 63.921875 
L 10.984375 60.40625 
L 10.984375 69.390625 
L 28.421875 72.90625 
L 38.28125 72.90625 
L 38.28125 8.296875 
L 54.390625 8.296875 
L 54.390625 0 
L 12.40625 0 
z
" id="DejaVuSans-31"/>
     <path d="M 48.6875 27.296875 
Q 48.6875 37.203125 44.609375 42.84375 
Q 40.53125 48.484375 33.40625 48.484375 
Q 26.265625 48.484375 22.1875 42.84375 
Q 18.109375 37.203125 18.109375 27.296875 
Q 18.109375 17.390625 22.1875 11.75 
Q 26.265625 6.109375 33.40625 6.109375 
Q 40.53125 6.109375 44.609375 11.75 
Q 48.6875 17.390625 48.6875 27.296875 
z
M 18.109375 46.390625 
Q 20.953125 51.265625 25.265625 53.625 
Q 29.59375 56 35.59375 56 
Q 45.5625 56 51.78125 48.09375 
Q 58.015625 40.1875 58.015625 27.296875 
Q 58.015625 14.40625 51.78125 6.484375 
Q 45.5625 -1.421875 35.59375 -1.421875 
Q 29.59375 -1.421875 25.265625 0.953125 
Q 20.953125 3.328125 18.109375 8.203125 
L 18.109375 0 
L 9.078125 0 
L 9.078125 75.984375 
L 18.109375 75.984375 
z
" id="DejaVuSans-62"/>
    </defs>
    <g transform="translate(153.497344 38.3472)scale(0.06 -0.06)">
     <use xlink:href="#DejaVuSans-43"/>
     <use x="69.824219" xlink:href="#DejaVuSans-44"/>
     <use x="146.826172" xlink:href="#DejaVuSans-52"/>
     <use x="216.308594" xlink:href="#DejaVuSans-31"/>
     <use x="279.931641" xlink:href="#DejaVuSans-62"/>
    </g>
   </g>
   <g id="text_86">
    <!-- 27 -->
    <defs>
     <path d="M 19.1875 8.296875 
L 53.609375 8.296875 
L 53.609375 0 
L 7.328125 0 
L 7.328125 8.296875 
Q 12.9375 14.109375 22.625 23.890625 
Q 32.328125 33.6875 34.8125 36.53125 
Q 39.546875 41.84375 41.421875 45.53125 
Q 43.3125 49.21875 43.3125 52.78125 
Q 43.3125 58.59375 39.234375 62.25 
Q 35.15625 65.921875 28.609375 65.921875 
Q 23.96875 65.921875 18.8125 64.3125 
Q 13.671875 62.703125 7.8125 59.421875 
L 7.8125 69.390625 
Q 13.765625 71.78125 18.9375 73 
Q 24.125 74.21875 28.421875 74.21875 
Q 39.75 74.21875 46.484375 68.546875 
Q 53.21875 62.890625 53.21875 53.421875 
Q 53.21875 48.921875 51.53125 44.890625 
Q 49.859375 40.875 45.40625 35.40625 
Q 44.1875 33.984375 37.640625 27.21875 
Q 31.109375 20.453125 19.1875 8.296875 
z
" id="DejaVuSans-32"/>
     <path d="M 8.203125 72.90625 
L 55.078125 72.90625 
L 55.078125 68.703125 
L 28.609375 0 
L 18.3125 0 
L 43.21875 64.59375 
L 8.203125 64.59375 
z
" id="DejaVuSans-37"/>
    </defs>
    <g transform="translate(146.0325 38.3472)scale(0.06 -0.06)">
     <use xlink:href="#DejaVuSans-32"/>
     <use x="63.623047" xlink:href="#DejaVuSans-37"/>
    </g>
   </g>
   <g id="text_87">
    <!-- 38 -->
    <defs>
     <path d="M 40.578125 39.3125 
Q 47.65625 37.796875 51.625 33 
Q 55.609375 28.21875 55.609375 21.1875 
Q 55.609375 10.40625 48.1875 4.484375 
Q 40.765625 -1.421875 27.09375 -1.421875 
Q 22.515625 -1.421875 17.65625 -0.515625 
Q 12.796875 0.390625 7.625 2.203125 
L 7.625 11.71875 
Q 11.71875 9.328125 16.59375 8.109375 
Q 21.484375 6.890625 26.8125 6.890625 
Q 36.078125 6.890625 40.9375 10.546875 
Q 45.796875 14.203125 45.796875 21.1875 
Q 45.796875 27.640625 41.28125 31.265625 
Q 36.765625 34.90625 28.71875 34.90625 
L 20.21875 34.90625 
L 20.21875 43.015625 
L 29.109375 43.015625 
Q 36.375 43.015625 40.234375 45.921875 
Q 44.09375 48.828125 44.09375 54.296875 
Q 44.09375 59.90625 40.109375 62.90625 
Q 36.140625 65.921875 28.71875 65.921875 
Q 24.65625 65.921875 20.015625 65.03125 
Q 15.375 64.15625 9.8125 62.3125 
L 9.8125 71.09375 
Q 15.4375 72.65625 20.34375 73.4375 
Q 25.25 74.21875 29.59375 74.21875 
Q 40.828125 74.21875 47.359375 69.109375 
Q 53.90625 64.015625 53.90625 55.328125 
Q 53.90625 49.265625 50.4375 45.09375 
Q 46.96875 40.921875 40.578125 39.3125 
z
" id="DejaVuSans-33"/>
     <path d="M 31.78125 34.625 
Q 24.75 34.625 20.71875 30.859375 
Q 16.703125 27.09375 16.703125 20.515625 
Q 16.703125 13.921875 20.71875 10.15625 
Q 24.75 6.390625 31.78125 6.390625 
Q 38.8125 6.390625 42.859375 10.171875 
Q 46.921875 13.96875 46.921875 20.515625 
Q 46.921875 27.09375 42.890625 30.859375 
Q 38.875 34.625 31.78125 34.625 
z
M 21.921875 38.8125 
Q 15.578125 40.375 12.03125 44.71875 
Q 8.5 49.078125 8.5 55.328125 
Q 8.5 64.0625 14.71875 69.140625 
Q 20.953125 74.21875 31.78125 74.21875 
Q 42.671875 74.21875 48.875 69.140625 
Q 55.078125 64.0625 55.078125 55.328125 
Q 55.078125 49.078125 51.53125 44.71875 
Q 48 40.375 41.703125 38.8125 
Q 48.828125 37.15625 52.796875 32.3125 
Q 56.78125 27.484375 56.78125 20.515625 
Q 56.78125 9.90625 50.3125 4.234375 
Q 43.84375 -1.421875 31.78125 -1.421875 
Q 19.734375 -1.421875 13.25 4.234375 
Q 6.78125 9.90625 6.78125 20.515625 
Q 6.78125 27.484375 10.78125 32.3125 
Q 14.796875 37.15625 21.921875 38.8125 
z
M 18.3125 54.390625 
Q 18.3125 48.734375 21.84375 45.5625 
Q 25.390625 42.390625 31.78125 42.390625 
Q 38.140625 42.390625 41.71875 45.5625 
Q 45.3125 48.734375 45.3125 54.390625 
Q 45.3125 60.0625 41.71875 63.234375 
Q 38.140625 66.40625 31.78125 66.40625 
Q 25.390625 66.40625 21.84375 63.234375 
Q 18.3125 60.0625 18.3125 54.390625 
z
" id="DejaVuSans-38"/>
    </defs>
    <g transform="translate(173.9325 38.3472)scale(0.06 -0.06)">
     <use xlink:href="#DejaVuSans-33"/>
     <use x="63.623047" xlink:href="#DejaVuSans-38"/>
    </g>
   </g>
   <g id="text_88">
    <!-- CDR2b -->
    <g transform="translate(223.247344 38.3472)scale(0.06 -0.06)">
     <use xlink:href="#DejaVuSans-43"/>
     <use x="69.824219" xlink:href="#DejaVuSans-44"/>
     <use x="146.826172" xlink:href="#DejaVuSans-52"/>
     <use x="216.308594" xlink:href="#DejaVuSans-32"/>
     <use x="279.931641" xlink:href="#DejaVuSans-62"/>
    </g>
   </g>
   <g id="text_89">
    <!-- 55 -->
    <defs>
     <path d="M 10.796875 72.90625 
L 49.515625 72.90625 
L 49.515625 64.59375 
L 19.828125 64.59375 
L 19.828125 46.734375 
Q 21.96875 47.46875 24.109375 47.828125 
Q 26.265625 48.1875 28.421875 48.1875 
Q 40.625 48.1875 47.75 41.5 
Q 54.890625 34.8125 54.890625 23.390625 
Q 54.890625 11.625 47.5625 5.09375 
Q 40.234375 -1.421875 26.90625 -1.421875 
Q 22.3125 -1.421875 17.546875 -0.640625 
Q 12.796875 0.140625 7.71875 1.703125 
L 7.71875 11.625 
Q 12.109375 9.234375 16.796875 8.0625 
Q 21.484375 6.890625 26.703125 6.890625 
Q 35.15625 6.890625 40.078125 11.328125 
Q 45.015625 15.765625 45.015625 23.390625 
Q 45.015625 31 40.078125 35.4375 
Q 35.15625 39.890625 26.703125 39.890625 
Q 22.75 39.890625 18.8125 39.015625 
Q 14.890625 38.140625 10.796875 36.28125 
z
" id="DejaVuSans-35"/>
    </defs>
    <g transform="translate(194.8575 38.3472)scale(0.06 -0.06)">
     <use xlink:href="#DejaVuSans-35"/>
     <use x="63.623047" xlink:href="#DejaVuSans-35"/>
    </g>
   </g>
   <g id="text_90">
    <!-- 69 -->
    <defs>
     <path d="M 33.015625 40.375 
Q 26.375 40.375 22.484375 35.828125 
Q 18.609375 31.296875 18.609375 23.390625 
Q 18.609375 15.53125 22.484375 10.953125 
Q 26.375 6.390625 33.015625 6.390625 
Q 39.65625 6.390625 43.53125 10.953125 
Q 47.40625 15.53125 47.40625 23.390625 
Q 47.40625 31.296875 43.53125 35.828125 
Q 39.65625 40.375 33.015625 40.375 
z
M 52.59375 71.296875 
L 52.59375 62.3125 
Q 48.875 64.0625 45.09375 64.984375 
Q 41.3125 65.921875 37.59375 65.921875 
Q 27.828125 65.921875 22.671875 59.328125 
Q 17.53125 52.734375 16.796875 39.40625 
Q 19.671875 43.65625 24.015625 45.921875 
Q 28.375 48.1875 33.59375 48.1875 
Q 44.578125 48.1875 50.953125 41.515625 
Q 57.328125 34.859375 57.328125 23.390625 
Q 57.328125 12.15625 50.6875 5.359375 
Q 44.046875 -1.421875 33.015625 -1.421875 
Q 20.359375 -1.421875 13.671875 8.265625 
Q 6.984375 17.96875 6.984375 36.375 
Q 6.984375 53.65625 15.1875 63.9375 
Q 23.390625 74.21875 37.203125 74.21875 
Q 40.921875 74.21875 44.703125 73.484375 
Q 48.484375 72.75 52.59375 71.296875 
z
" id="DejaVuSans-36"/>
     <path d="M 10.984375 1.515625 
L 10.984375 10.5 
Q 14.703125 8.734375 18.5 7.8125 
Q 22.3125 6.890625 25.984375 6.890625 
Q 35.75 6.890625 40.890625 13.453125 
Q 46.046875 20.015625 46.78125 33.40625 
Q 43.953125 29.203125 39.59375 26.953125 
Q 35.25 24.703125 29.984375 24.703125 
Q 19.046875 24.703125 12.671875 31.3125 
Q 6.296875 37.9375 6.296875 49.421875 
Q 6.296875 60.640625 12.9375 67.421875 
Q 19.578125 74.21875 30.609375 74.21875 
Q 43.265625 74.21875 49.921875 64.515625 
Q 56.59375 54.828125 56.59375 36.375 
Q 56.59375 19.140625 48.40625 8.859375 
Q 40.234375 -1.421875 26.421875 -1.421875 
Q 22.703125 -1.421875 18.890625 -0.6875 
Q 15.09375 0.046875 10.984375 1.515625 
z
M 30.609375 32.421875 
Q 37.25 32.421875 41.125 36.953125 
Q 45.015625 41.5 45.015625 49.421875 
Q 45.015625 57.28125 41.125 61.84375 
Q 37.25 66.40625 30.609375 66.40625 
Q 23.96875 66.40625 20.09375 61.84375 
Q 16.21875 57.28125 16.21875 49.421875 
Q 16.21875 41.5 20.09375 36.953125 
Q 23.96875 32.421875 30.609375 32.421875 
z
" id="DejaVuSans-39"/>
    </defs>
    <g transform="translate(264.6075 38.3472)scale(0.06 -0.06)">
     <use xlink:href="#DejaVuSans-36"/>
     <use x="63.623047" xlink:href="#DejaVuSans-39"/>
    </g>
   </g>
   <g id="text_91">
    <!-- FWb -->
    <defs>
     <path d="M 9.8125 72.90625 
L 51.703125 72.90625 
L 51.703125 64.59375 
L 19.671875 64.59375 
L 19.671875 43.109375 
L 48.578125 43.109375 
L 48.578125 34.8125 
L 19.671875 34.8125 
L 19.671875 0 
L 9.8125 0 
z
" id="DejaVuSans-46"/>
     <path d="M 3.328125 72.90625 
L 13.28125 72.90625 
L 28.609375 11.28125 
L 43.890625 72.90625 
L 54.984375 72.90625 
L 70.3125 11.28125 
L 85.59375 72.90625 
L 95.609375 72.90625 
L 77.296875 0 
L 64.890625 0 
L 49.515625 63.28125 
L 33.984375 0 
L 21.578125 0 
z
" id="DejaVuSans-57"/>
    </defs>
    <g transform="translate(307.16625 38.3472)scale(0.06 -0.06)">
     <use xlink:href="#DejaVuSans-46"/>
     <use x="57.519531" xlink:href="#DejaVuSans-57"/>
     <use x="156.396484" xlink:href="#DejaVuSans-62"/>
    </g>
   </g>
   <g id="text_92">
    <!-- 79 -->
    <g transform="translate(285.5325 38.3472)scale(0.06 -0.06)">
     <use xlink:href="#DejaVuSans-37"/>
     <use x="63.623047" xlink:href="#DejaVuSans-39"/>
    </g>
   </g>
   <g id="text_93">
    <!-- 87 -->
    <g transform="translate(334.3575 38.3472)scale(0.06 -0.06)">
     <use xlink:href="#DejaVuSans-38"/>
     <use x="63.623047" xlink:href="#DejaVuSans-37"/>
    </g>
   </g>
   <g id="text_94">
    <!-- CDR3b -->
    <g transform="translate(401.109844 38.3472)scale(0.06 -0.06)">
     <use xlink:href="#DejaVuSans-43"/>
     <use x="69.824219" xlink:href="#DejaVuSans-44"/>
     <use x="146.826172" xlink:href="#DejaVuSans-52"/>
     <use x="216.308594" xlink:href="#DejaVuSans-33"/>
     <use x="279.931641" xlink:href="#DejaVuSans-62"/>
    </g>
   </g>
   <g id="text_95">
    <!-- 104 -->
    <defs>
     <path d="M 31.78125 66.40625 
Q 24.171875 66.40625 20.328125 58.90625 
Q 16.5 51.421875 16.5 36.375 
Q 16.5 21.390625 20.328125 13.890625 
Q 24.171875 6.390625 31.78125 6.390625 
Q 39.453125 6.390625 43.28125 13.890625 
Q 47.125 21.390625 47.125 36.375 
Q 47.125 51.421875 43.28125 58.90625 
Q 39.453125 66.40625 31.78125 66.40625 
z
M 31.78125 74.21875 
Q 44.046875 74.21875 50.515625 64.515625 
Q 56.984375 54.828125 56.984375 36.375 
Q 56.984375 17.96875 50.515625 8.265625 
Q 44.046875 -1.421875 31.78125 -1.421875 
Q 19.53125 -1.421875 13.0625 8.265625 
Q 6.59375 17.96875 6.59375 36.375 
Q 6.59375 54.828125 13.0625 64.515625 
Q 19.53125 74.21875 31.78125 74.21875 
z
" id="DejaVuSans-30"/>
     <path d="M 37.796875 64.3125 
L 12.890625 25.390625 
L 37.796875 25.390625 
z
M 35.203125 72.90625 
L 47.609375 72.90625 
L 47.609375 25.390625 
L 58.015625 25.390625 
L 58.015625 17.1875 
L 47.609375 17.1875 
L 47.609375 0 
L 37.796875 0 
L 37.796875 17.1875 
L 4.890625 17.1875 
L 4.890625 26.703125 
z
" id="DejaVuSans-34"/>
    </defs>
    <g transform="translate(353.37375 38.3472)scale(0.06 -0.06)">
     <use xlink:href="#DejaVuSans-31"/>
     <use x="63.623047" xlink:href="#DejaVuSans-30"/>
     <use x="127.246094" xlink:href="#DejaVuSans-34"/>
    </g>
   </g>
   <g id="text_96">
    <!-- 119 -->
    <g transform="translate(457.99875 38.3472)scale(0.06 -0.06)">
     <use xlink:href="#DejaVuSans-31"/>
     <use x="63.623047" xlink:href="#DejaVuSans-31"/>
     <use x="127.246094" xlink:href="#DejaVuSans-39"/>
    </g>
   </g>
   <g id="text_97">
    <!-- CDR3a -->
    <defs>
     <path d="M 34.28125 27.484375 
Q 23.390625 27.484375 19.1875 25 
Q 14.984375 22.515625 14.984375 16.5 
Q 14.984375 11.71875 18.140625 8.90625 
Q 21.296875 6.109375 26.703125 6.109375 
Q 34.1875 6.109375 38.703125 11.40625 
Q 43.21875 16.703125 43.21875 25.484375 
L 43.21875 27.484375 
z
M 52.203125 31.203125 
L 52.203125 0 
L 43.21875 0 
L 43.21875 8.296875 
Q 40.140625 3.328125 35.546875 0.953125 
Q 30.953125 -1.421875 24.3125 -1.421875 
Q 15.921875 -1.421875 10.953125 3.296875 
Q 6 8.015625 6 15.921875 
Q 6 25.140625 12.171875 29.828125 
Q 18.359375 34.515625 30.609375 34.515625 
L 43.21875 34.515625 
L 43.21875 35.40625 
Q 43.21875 41.609375 39.140625 45 
Q 35.0625 48.390625 27.6875 48.390625 
Q 23 48.390625 18.546875 47.265625 
Q 14.109375 46.140625 10.015625 43.890625 
L 10.015625 52.203125 
Q 14.9375 54.109375 19.578125 55.046875 
Q 24.21875 56 28.609375 56 
Q 40.484375 56 46.34375 49.84375 
Q 52.203125 43.703125 52.203125 31.203125 
z
" id="DejaVuSans-61"/>
    </defs>
    <g transform="translate(523.238438 38.3472)scale(0.06 -0.06)">
     <use xlink:href="#DejaVuSans-43"/>
     <use x="69.824219" xlink:href="#DejaVuSans-44"/>
     <use x="146.826172" xlink:href="#DejaVuSans-52"/>
     <use x="216.308594" xlink:href="#DejaVuSans-33"/>
     <use x="279.931641" xlink:href="#DejaVuSans-61"/>
    </g>
   </g>
   <g id="text_98">
    <!-- 104 -->
    <g transform="translate(478.92375 38.3472)scale(0.06 -0.06)">
     <use xlink:href="#DejaVuSans-31"/>
     <use x="63.623047" xlink:href="#DejaVuSans-30"/>
     <use x="127.246094" xlink:href="#DejaVuSans-34"/>
    </g>
   </g>
   <g id="text_99">
    <!-- 118 -->
    <g transform="translate(576.57375 38.3472)scale(0.06 -0.06)">
     <use xlink:href="#DejaVuSans-31"/>
     <use x="63.623047" xlink:href="#DejaVuSans-31"/>
     <use x="127.246094" xlink:href="#DejaVuSans-38"/>
    </g>
   </g>
   <g id="text_100">
    <!-- FWa -->
    <g transform="translate(610.647656 38.3472)scale(0.06 -0.06)">
     <use xlink:href="#DejaVuSans-46"/>
     <use x="57.519531" xlink:href="#DejaVuSans-57"/>
     <use x="156.302734" xlink:href="#DejaVuSans-61"/>
    </g>
   </g>
   <g id="text_101">
    <!-- 81 -->
    <g transform="translate(599.4075 38.3472)scale(0.06 -0.06)">
     <use xlink:href="#DejaVuSans-38"/>
     <use x="63.623047" xlink:href="#DejaVuSans-31"/>
    </g>
   </g>
   <g id="text_102">
    <!-- 85 -->
    <g transform="translate(627.3075 38.3472)scale(0.06 -0.06)">
     <use xlink:href="#DejaVuSans-38"/>
     <use x="63.623047" xlink:href="#DejaVuSans-35"/>
    </g>
   </g>
   <g id="text_103">
    <!-- CDR2a -->
    <g transform="translate(652.275938 38.3472)scale(0.06 -0.06)">
     <use xlink:href="#DejaVuSans-43"/>
     <use x="69.824219" xlink:href="#DejaVuSans-44"/>
     <use x="146.826172" xlink:href="#DejaVuSans-52"/>
     <use x="216.308594" xlink:href="#DejaVuSans-32"/>
     <use x="279.931641" xlink:href="#DejaVuSans-61"/>
    </g>
   </g>
   <g id="text_104">
    <!-- 56 -->
    <g transform="translate(648.2325 38.3472)scale(0.06 -0.06)">
     <use xlink:href="#DejaVuSans-35"/>
     <use x="63.623047" xlink:href="#DejaVuSans-36"/>
    </g>
   </g>
   <g id="text_105">
    <!-- 64 -->
    <g transform="translate(669.1575 38.3472)scale(0.06 -0.06)">
     <use xlink:href="#DejaVuSans-36"/>
     <use x="63.623047" xlink:href="#DejaVuSans-34"/>
    </g>
   </g>
   <g id="text_106">
    <!-- CDR1a -->
    <g transform="translate(704.588438 38.3472)scale(0.06 -0.06)">
     <use xlink:href="#DejaVuSans-43"/>
     <use x="69.824219" xlink:href="#DejaVuSans-44"/>
     <use x="146.826172" xlink:href="#DejaVuSans-52"/>
     <use x="216.308594" xlink:href="#DejaVuSans-31"/>
     <use x="279.931641" xlink:href="#DejaVuSans-61"/>
    </g>
   </g>
   <g id="text_107">
    <!-- 27 -->
    <g transform="translate(690.0825 38.3472)scale(0.06 -0.06)">
     <use xlink:href="#DejaVuSans-32"/>
     <use x="63.623047" xlink:href="#DejaVuSans-37"/>
    </g>
   </g>
   <g id="text_108">
    <!-- 38 -->
    <g transform="translate(731.9325 38.3472)scale(0.06 -0.06)">
     <use xlink:href="#DejaVuSans-33"/>
     <use x="63.623047" xlink:href="#DejaVuSans-38"/>
    </g>
   </g>
   <g id="text_109">
    <!-- peptide -->
    <defs>
     <path d="M 18.109375 8.203125 
L 18.109375 -20.796875 
L 9.078125 -20.796875 
L 9.078125 54.6875 
L 18.109375 54.6875 
L 18.109375 46.390625 
Q 20.953125 51.265625 25.265625 53.625 
Q 29.59375 56 35.59375 56 
Q 45.5625 56 51.78125 48.09375 
Q 58.015625 40.1875 58.015625 27.296875 
Q 58.015625 14.40625 51.78125 6.484375 
Q 45.5625 -1.421875 35.59375 -1.421875 
Q 29.59375 -1.421875 25.265625 0.953125 
Q 20.953125 3.328125 18.109375 8.203125 
z
M 48.6875 27.296875 
Q 48.6875 37.203125 44.609375 42.84375 
Q 40.53125 48.484375 33.40625 48.484375 
Q 26.265625 48.484375 22.1875 42.84375 
Q 18.109375 37.203125 18.109375 27.296875 
Q 18.109375 17.390625 22.1875 11.75 
Q 26.265625 6.109375 33.40625 6.109375 
Q 40.53125 6.109375 44.609375 11.75 
Q 48.6875 17.390625 48.6875 27.296875 
z
" id="DejaVuSans-70"/>
     <path d="M 56.203125 29.59375 
L 56.203125 25.203125 
L 14.890625 25.203125 
Q 15.484375 15.921875 20.484375 11.0625 
Q 25.484375 6.203125 34.421875 6.203125 
Q 39.59375 6.203125 44.453125 7.46875 
Q 49.3125 8.734375 54.109375 11.28125 
L 54.109375 2.78125 
Q 49.265625 0.734375 44.1875 -0.34375 
Q 39.109375 -1.421875 33.890625 -1.421875 
Q 20.796875 -1.421875 13.15625 6.1875 
Q 5.515625 13.8125 5.515625 26.8125 
Q 5.515625 40.234375 12.765625 48.109375 
Q 20.015625 56 32.328125 56 
Q 43.359375 56 49.78125 48.890625 
Q 56.203125 41.796875 56.203125 29.59375 
z
M 47.21875 32.234375 
Q 47.125 39.59375 43.09375 43.984375 
Q 39.0625 48.390625 32.421875 48.390625 
Q 24.90625 48.390625 20.390625 44.140625 
Q 15.875 39.890625 15.1875 32.171875 
z
" id="DejaVuSans-65"/>
     <path d="M 18.3125 70.21875 
L 18.3125 54.6875 
L 36.8125 54.6875 
L 36.8125 47.703125 
L 18.3125 47.703125 
L 18.3125 18.015625 
Q 18.3125 11.328125 20.140625 9.421875 
Q 21.96875 7.515625 27.59375 7.515625 
L 36.8125 7.515625 
L 36.8125 0 
L 27.59375 0 
Q 17.1875 0 13.234375 3.875 
Q 9.28125 7.765625 9.28125 18.015625 
L 9.28125 47.703125 
L 2.6875 47.703125 
L 2.6875 54.6875 
L 9.28125 54.6875 
L 9.28125 70.21875 
z
" id="DejaVuSans-74"/>
     <path d="M 9.421875 54.6875 
L 18.40625 54.6875 
L 18.40625 0 
L 9.421875 0 
z
M 9.421875 75.984375 
L 18.40625 75.984375 
L 18.40625 64.59375 
L 9.421875 64.59375 
z
" id="DejaVuSans-69"/>
     <path d="M 45.40625 46.390625 
L 45.40625 75.984375 
L 54.390625 75.984375 
L 54.390625 0 
L 45.40625 0 
L 45.40625 8.203125 
Q 42.578125 3.328125 38.25 0.953125 
Q 33.9375 -1.421875 27.875 -1.421875 
Q 17.96875 -1.421875 11.734375 6.484375 
Q 5.515625 14.40625 5.515625 27.296875 
Q 5.515625 40.1875 11.734375 48.09375 
Q 17.96875 56 27.875 56 
Q 33.9375 56 38.25 53.625 
Q 42.578125 51.265625 45.40625 46.390625 
z
M 14.796875 27.296875 
Q 14.796875 17.390625 18.875 11.75 
Q 22.953125 6.109375 30.078125 6.109375 
Q 37.203125 6.109375 41.296875 11.75 
Q 45.40625 17.390625 45.40625 27.296875 
Q 45.40625 37.203125 41.296875 42.84375 
Q 37.203125 48.484375 30.078125 48.484375 
Q 22.953125 48.484375 18.875 42.84375 
Q 14.796875 37.203125 14.796875 27.296875 
z
" id="DejaVuSans-64"/>
    </defs>
    <g transform="translate(431.385 108.756)scale(0.06 -0.06)">
     <use xlink:href="#DejaVuSans-70"/>
     <use x="63.476562" xlink:href="#DejaVuSans-65"/>
     <use x="125" xlink:href="#DejaVuSans-70"/>
     <use x="188.476562" xlink:href="#DejaVuSans-74"/>
     <use x="227.685547" xlink:href="#DejaVuSans-69"/>
     <use x="255.46875" xlink:href="#DejaVuSans-64"/>
     <use x="318.945312" xlink:href="#DejaVuSans-65"/>
    </g>
   </g>
   <g id="text_110">
    <!-- 1 -->
    <g transform="translate(399.04125 108.756)scale(0.06 -0.06)">
     <use xlink:href="#DejaVuSans-31"/>
    </g>
   </g>
   <g id="text_111">
    <!-- 13 -->
    <g transform="translate(480.8325 108.756)scale(0.06 -0.06)">
     <use xlink:href="#DejaVuSans-31"/>
     <use x="63.623047" xlink:href="#DejaVuSans-33"/>
    </g>
   </g>
  </g>
 </g>
 <defs>
  <clipPath id="pc9958317d5">
   <rect height="110.88" width="669.6" x="108" y="17.28"/>
  </clipPath>
 </defs>
</svg>
