<?xml version="1.0" encoding="utf-8" standalone="no"?>
<!DOCTYPE svg PUBLIC "-//W3C//DTD SVG 1.1//EN"
  "http://www.w3.org/Graphics/SVG/1.1/DTD/svg11.dtd">
<!-- Created with matplotlib (http://matplotlib.org/) -->
<svg height="144pt" version="1.1" viewBox="0 0 576 144" width="576pt" xmlns="http://www.w3.org/2000/svg" xmlns:xlink="http://www.w3.org/1999/xlink">
 <defs>
  <style type="text/css">
*{stroke-linecap:butt;stroke-linejoin:round;}
  </style>
 </defs>
 <g id="figure_1">
  <g id="patch_1">
   <path d="M 0 144 
L 576 144 
L 576 0 
L 0 0 
z
" style="fill:none;"/>
  </g>
  <g id="axes_1">
   <g id="text_1">
    <g clip-path="url(#p3370368d36)">
     <!-- A -->
     <defs>
      <path d="M 30.078125 64.203125 
L 19.671875 26.90625 
L 40.484375 26.90625 
z
M 24.125 72.90625 
L 36.078125 72.90625 
L 58.40625 0 
L 48.1875 0 
L 42.828125 19 
L 17.28125 19 
L 12.015625 0 
L 1.8125 0 
z
" id="DejaVuSansMono-41"/>
     </defs>
     <g transform="translate(256.712812 120.415125)scale(0.12 -0.12)">
      <use xlink:href="#DejaVuSansMono-41"/>
     </g>
    </g>
   </g>
   <g id="text_2">
    <g clip-path="url(#p3370368d36)">
     <!-- H -->
     <defs>
      <path d="M 6.6875 72.90625 
L 16.609375 72.90625 
L 16.609375 43.015625 
L 43.609375 43.015625 
L 43.609375 72.90625 
L 53.515625 72.90625 
L 53.515625 0 
L 43.609375 0 
L 43.609375 34.71875 
L 16.609375 34.71875 
L 16.609375 0 
L 6.6875 0 
z
" id="DejaVuSansMono-48"/>
     </defs>
     <g transform="translate(242.762812 120.415125)scale(0.12 -0.12)">
      <use xlink:href="#DejaVuSansMono-48"/>
     </g>
    </g>
   </g>
   <g id="text_3">
    <g clip-path="url(#p3370368d36)">
     <!-- Y -->
     <defs>
      <path d="M 1.8125 72.90625 
L 12.3125 72.90625 
L 30.078125 40.71875 
L 47.796875 72.90625 
L 58.40625 72.90625 
L 35.015625 32.71875 
L 35.015625 0 
L 25.09375 0 
L 25.09375 32.71875 
z
" id="DejaVuSansMono-59"/>
     </defs>
     <g transform="translate(403.187812 31.711125)scale(0.12 -0.12)">
      <use xlink:href="#DejaVuSansMono-59"/>
     </g>
    </g>
   </g>
   <g id="text_4">
    <g clip-path="url(#p3370368d36)">
     <!-- T -->
     <defs>
      <path d="M 2.296875 72.90625 
L 57.90625 72.90625 
L 57.90625 64.59375 
L 35.109375 64.59375 
L 35.109375 0 
L 25.203125 0 
L 25.203125 64.59375 
L 2.296875 64.59375 
z
" id="DejaVuSansMono-54"/>
     </defs>
     <g transform="translate(375.287812 31.711125)scale(0.12 -0.12)">
      <use xlink:href="#DejaVuSansMono-54"/>
     </g>
    </g>
   </g>
   <g id="text_5">
    <g clip-path="url(#p3370368d36)">
     <!-- T -->
     <g transform="translate(263.687813 31.711125)scale(0.12 -0.12)">
      <use xlink:href="#DejaVuSansMono-54"/>
     </g>
    </g>
   </g>
   <g id="text_6">
    <g clip-path="url(#p3370368d36)">
     <!-- W -->
     <defs>
      <path d="M 0 72.90625 
L 9.625 72.90625 
L 16.609375 13.71875 
L 24.90625 52.875 
L 35.203125 52.875 
L 43.609375 13.625 
L 50.59375 72.90625 
L 60.203125 72.90625 
L 49.3125 0 
L 39.984375 0 
L 30.078125 43.3125 
L 20.21875 0 
L 10.890625 0 
z
" id="DejaVuSansMono-57"/>
     </defs>
     <g transform="translate(235.787812 31.711125)scale(0.12 -0.12)">
      <use xlink:href="#DejaVuSansMono-57"/>
     </g>
    </g>
   </g>
   <g id="text_7">
    <g clip-path="url(#p3370368d36)">
     <!-- Q -->
     <defs>
      <path d="M 31.984375 -1.3125 
Q 31.640625 -1.3125 31 -1.359375 
Q 30.375 -1.421875 29.984375 -1.421875 
Q 17.78125 -1.421875 11.75 7.953125 
Q 5.71875 17.328125 5.71875 36.375 
Q 5.71875 55.46875 11.75 64.84375 
Q 17.78125 74.21875 30.078125 74.21875 
Q 42.4375 74.21875 48.46875 64.84375 
Q 54.5 55.46875 54.5 36.375 
Q 54.5 22.015625 51.140625 13.25 
Q 47.796875 4.5 41.015625 0.984375 
L 50.78125 -8.296875 
L 43.40625 -13.1875 
z
M 44.1875 36.375 
Q 44.1875 52.4375 40.890625 59.328125 
Q 37.59375 66.21875 30.078125 66.21875 
Q 22.609375 66.21875 19.3125 59.328125 
Q 16.015625 52.4375 16.015625 36.375 
Q 16.015625 20.359375 19.3125 13.46875 
Q 22.609375 6.59375 30.078125 6.59375 
Q 37.59375 6.59375 40.890625 13.453125 
Q 44.1875 20.3125 44.1875 36.375 
z
" id="DejaVuSansMono-51"/>
     </defs>
     <g transform="translate(319.487812 31.711125)scale(0.12 -0.12)">
      <use xlink:href="#DejaVuSansMono-51"/>
     </g>
    </g>
   </g>
   <g id="text_8">
    <g clip-path="url(#p3370368d36)">
     <!-- H -->
     <g transform="translate(200.912812 120.415125)scale(0.12 -0.12)">
      <use xlink:href="#DejaVuSansMono-48"/>
     </g>
    </g>
   </g>
   <g id="text_9">
    <g clip-path="url(#p3370368d36)">
     <!-- L -->
     <defs>
      <path d="M 10.5 72.90625 
L 20.40625 72.90625 
L 20.40625 8.296875 
L 55.609375 8.296875 
L 55.609375 0 
L 10.5 0 
z
" id="DejaVuSansMono-4c"/>
     </defs>
     <g transform="translate(361.337812 120.415125)scale(0.12 -0.12)">
      <use xlink:href="#DejaVuSansMono-4c"/>
     </g>
    </g>
   </g>
   <g id="text_10">
    <g clip-path="url(#p3370368d36)">
     <!-- N -->
     <defs>
      <path d="M 6.78125 72.90625 
L 19.28125 72.90625 
L 43.890625 12.890625 
L 43.890625 72.90625 
L 53.421875 72.90625 
L 53.421875 0 
L 40.921875 0 
L 16.3125 60.015625 
L 16.3125 0 
L 6.78125 0 
z
" id="DejaVuSansMono-4e"/>
     </defs>
     <g transform="translate(417.137812 31.711125)scale(0.12 -0.12)">
      <use xlink:href="#DejaVuSansMono-4e"/>
     </g>
    </g>
   </g>
   <g id="text_11">
    <g clip-path="url(#p3370368d36)">
     <!-- A -->
     <g transform="translate(305.537812 76.063125)scale(0.12 -0.12)">
      <use xlink:href="#DejaVuSansMono-41"/>
     </g>
    </g>
   </g>
   <g id="text_12">
    <g clip-path="url(#p3370368d36)">
     <!-- E -->
     <defs>
      <path d="M 9.625 72.90625 
L 52.875 72.90625 
L 52.875 64.59375 
L 19.484375 64.59375 
L 19.484375 43.015625 
L 51.421875 43.015625 
L 51.421875 34.71875 
L 19.484375 34.71875 
L 19.484375 8.296875 
L 53.8125 8.296875 
L 53.8125 0 
L 9.625 0 
z
" id="DejaVuSansMono-45"/>
     </defs>
     <g transform="translate(312.512812 120.415125)scale(0.12 -0.12)">
      <use xlink:href="#DejaVuSansMono-45"/>
     </g>
    </g>
   </g>
   <g id="text_13">
    <g clip-path="url(#p3370368d36)">
     <!-- E -->
     <g transform="translate(396.212812 120.415125)scale(0.12 -0.12)">
      <use xlink:href="#DejaVuSansMono-45"/>
     </g>
    </g>
   </g>
   <g id="text_14">
    <g clip-path="url(#p3370368d36)">
     <!-- G -->
     <defs>
      <path d="M 53.90625 6 
Q 49.953125 2.34375 45 0.453125 
Q 40.046875 -1.421875 34.28125 -1.421875 
Q 20.40625 -1.421875 12.6875 8.515625 
Q 4.984375 18.453125 4.984375 36.375 
Q 4.984375 54.25 12.796875 64.234375 
Q 20.609375 74.21875 34.515625 74.21875 
Q 39.109375 74.21875 43.3125 72.921875 
Q 47.515625 71.625 51.421875 69 
L 51.421875 58.890625 
Q 47.46875 62.640625 43.3125 64.421875 
Q 39.15625 66.21875 34.515625 66.21875 
Q 24.90625 66.21875 20.09375 58.765625 
Q 15.28125 51.3125 15.28125 36.375 
Q 15.28125 21.1875 19.9375 13.890625 
Q 24.609375 6.59375 34.28125 6.59375 
Q 37.546875 6.59375 40.015625 7.34375 
Q 42.484375 8.109375 44.484375 9.71875 
L 44.484375 29.296875 
L 33.890625 29.296875 
L 33.890625 37.40625 
L 53.90625 37.40625 
z
" id="DejaVuSansMono-47"/>
     </defs>
     <g transform="translate(249.737812 31.711125)scale(0.12 -0.12)">
      <use xlink:href="#DejaVuSansMono-47"/>
     </g>
    </g>
   </g>
   <g id="text_15">
    <g clip-path="url(#p3370368d36)">
     <!-- W -->
     <g transform="translate(214.862812 120.415125)scale(0.12 -0.12)">
      <use xlink:href="#DejaVuSansMono-57"/>
     </g>
    </g>
   </g>
   <g id="text_16">
    <g clip-path="url(#p3370368d36)">
     <!-- Y -->
     <g transform="translate(277.637812 76.063125)scale(0.12 -0.12)">
      <use xlink:href="#DejaVuSansMono-59"/>
     </g>
    </g>
   </g>
   <g id="text_17">
    <g clip-path="url(#p3370368d36)">
     <!-- N -->
     <g transform="translate(403.187812 120.415125)scale(0.12 -0.12)">
      <use xlink:href="#DejaVuSansMono-4e"/>
     </g>
    </g>
   </g>
   <g id="text_18">
    <g clip-path="url(#p3370368d36)">
     <!-- Y -->
     <g transform="translate(228.812812 31.711125)scale(0.12 -0.12)">
      <use xlink:href="#DejaVuSansMono-59"/>
     </g>
    </g>
   </g>
   <g id="text_19">
    <g clip-path="url(#p3370368d36)">
     <!-- T -->
     <g transform="translate(312.512812 76.063125)scale(0.12 -0.12)">
      <use xlink:href="#DejaVuSansMono-54"/>
     </g>
    </g>
   </g>
   <g id="text_20">
    <g clip-path="url(#p3370368d36)">
     <!-- H -->
     <g transform="translate(305.537812 31.711125)scale(0.12 -0.12)">
      <use xlink:href="#DejaVuSansMono-48"/>
     </g>
    </g>
   </g>
   <g id="text_21">
    <g clip-path="url(#p3370368d36)">
     <!-- Q -->
     <g transform="translate(173.012812 120.415125)scale(0.12 -0.12)">
      <use xlink:href="#DejaVuSansMono-51"/>
     </g>
    </g>
   </g>
   <g id="text_22">
    <g clip-path="url(#p3370368d36)">
     <!-- A -->
     <g transform="translate(298.562813 31.711125)scale(0.12 -0.12)">
      <use xlink:href="#DejaVuSansMono-41"/>
     </g>
    </g>
   </g>
   <g id="text_23">
    <g clip-path="url(#p3370368d36)">
     <!-- T -->
     <g transform="translate(186.962812 120.415125)scale(0.12 -0.12)">
      <use xlink:href="#DejaVuSansMono-54"/>
     </g>
    </g>
   </g>
   <g id="text_24">
    <g clip-path="url(#p3370368d36)">
     <!-- R -->
     <defs>
      <path d="M 37.109375 34.421875 
Q 40.921875 33.453125 43.609375 30.734375 
Q 46.296875 28.03125 50.296875 19.921875 
L 60.203125 0 
L 49.609375 0 
L 40.921875 18.40625 
Q 37.15625 26.265625 34.15625 28.53125 
Q 31.15625 30.8125 26.3125 30.8125 
L 16.890625 30.8125 
L 16.890625 0 
L 6.984375 0 
L 6.984375 72.90625 
L 27.296875 72.90625 
Q 39.3125 72.90625 45.703125 67.484375 
Q 52.09375 62.0625 52.09375 51.8125 
Q 52.09375 44.578125 48.15625 40.015625 
Q 44.234375 35.453125 37.109375 34.421875 
z
M 16.890625 64.796875 
L 16.890625 38.921875 
L 27.6875 38.921875 
Q 34.765625 38.921875 38.234375 42.09375 
Q 41.703125 45.265625 41.703125 51.8125 
Q 41.703125 58.109375 38.015625 61.453125 
Q 34.328125 64.796875 27.296875 64.796875 
z
" id="DejaVuSansMono-52"/>
     </defs>
     <g transform="translate(284.612812 120.415125)scale(0.12 -0.12)">
      <use xlink:href="#DejaVuSansMono-52"/>
     </g>
    </g>
   </g>
   <g id="text_25">
    <g clip-path="url(#p3370368d36)">
     <!-- Q -->
     <g transform="translate(270.662812 120.415125)scale(0.12 -0.12)">
      <use xlink:href="#DejaVuSansMono-51"/>
     </g>
    </g>
   </g>
   <g id="text_26">
    <g clip-path="url(#p3370368d36)">
     <!-- A -->
     <g transform="translate(228.812812 120.415125)scale(0.12 -0.12)">
      <use xlink:href="#DejaVuSansMono-41"/>
     </g>
    </g>
   </g>
   <g id="text_27">
    <g clip-path="url(#p3370368d36)">
     <!-- G -->
     <g transform="translate(207.887812 31.711125)scale(0.12 -0.12)">
      <use xlink:href="#DejaVuSansMono-47"/>
     </g>
    </g>
   </g>
   <g id="text_28">
    <g clip-path="url(#p3370368d36)">
     <!-- T -->
     <g transform="translate(326.462812 120.415125)scale(0.12 -0.12)">
      <use xlink:href="#DejaVuSansMono-54"/>
     </g>
    </g>
   </g>
   <g id="text_29">
    <g clip-path="url(#p3370368d36)">
     <!-- I -->
     <defs>
      <path d="M 9.8125 72.90625 
L 50.296875 72.90625 
L 50.296875 64.59375 
L 35.015625 64.59375 
L 35.015625 8.296875 
L 50.296875 8.296875 
L 50.296875 0 
L 9.8125 0 
L 9.8125 8.296875 
L 25.09375 8.296875 
L 25.09375 64.59375 
L 9.8125 64.59375 
z
" id="DejaVuSansMono-49"/>
     </defs>
     <g transform="translate(179.987812 31.711125)scale(0.12 -0.12)">
      <use xlink:href="#DejaVuSansMono-49"/>
     </g>
    </g>
   </g>
   <g id="text_30">
    <g clip-path="url(#p3370368d36)">
     <!-- Y -->
     <g transform="translate(382.262812 120.415125)scale(0.12 -0.12)">
      <use xlink:href="#DejaVuSansMono-59"/>
     </g>
    </g>
   </g>
   <g id="text_31">
    <g clip-path="url(#p3370368d36)">
     <!-- W -->
     <g transform="translate(354.362812 120.415125)scale(0.12 -0.12)">
      <use xlink:href="#DejaVuSansMono-57"/>
     </g>
    </g>
   </g>
   <g id="text_32">
    <g clip-path="url(#p3370368d36)">
     <!-- C -->
     <defs>
      <path d="M 52.390625 2.59375 
Q 48.640625 0.59375 44.671875 -0.40625 
Q 40.71875 -1.421875 36.28125 -1.421875 
Q 22.265625 -1.421875 14.515625 8.484375 
Q 6.78125 18.40625 6.78125 36.375 
Q 6.78125 54.25 14.5625 64.234375 
Q 22.359375 74.21875 36.28125 74.21875 
Q 40.71875 74.21875 44.671875 73.21875 
Q 48.640625 72.21875 52.390625 70.21875 
L 52.390625 60.109375 
Q 48.78125 63.09375 44.625 64.65625 
Q 40.484375 66.21875 36.28125 66.21875 
Q 26.65625 66.21875 21.875 58.796875 
Q 17.09375 51.375 17.09375 36.375 
Q 17.09375 21.4375 21.875 14.015625 
Q 26.65625 6.59375 36.28125 6.59375 
Q 40.578125 6.59375 44.703125 8.15625 
Q 48.828125 9.71875 52.390625 12.703125 
z
" id="DejaVuSansMono-43"/>
     </defs>
     <g transform="translate(333.437812 120.415125)scale(0.12 -0.12)">
      <use xlink:href="#DejaVuSansMono-43"/>
     </g>
    </g>
   </g>
   <g id="text_33">
    <g clip-path="url(#p3370368d36)">
     <!-- G -->
     <g transform="translate(319.487812 120.415125)scale(0.12 -0.12)">
      <use xlink:href="#DejaVuSansMono-47"/>
     </g>
    </g>
   </g>
   <g id="text_34">
    <g clip-path="url(#p3370368d36)">
     <!-- L -->
     <g transform="translate(305.537812 120.415125)scale(0.12 -0.12)">
      <use xlink:href="#DejaVuSansMono-4c"/>
     </g>
    </g>
   </g>
   <g id="text_35">
    <g clip-path="url(#p3370368d36)">
     <!-- P -->
     <defs>
      <path d="M 19.484375 64.796875 
L 19.484375 37.40625 
L 30.90625 37.40625 
Q 37.75 37.40625 41.578125 41.015625 
Q 45.40625 44.625 45.40625 51.125 
Q 45.40625 57.625 41.59375 61.203125 
Q 37.796875 64.796875 30.90625 64.796875 
z
M 9.625 72.90625 
L 30.90625 72.90625 
Q 43.109375 72.90625 49.40625 67.359375 
Q 55.71875 61.8125 55.71875 51.125 
Q 55.71875 40.328125 49.4375 34.8125 
Q 43.171875 29.296875 30.90625 29.296875 
L 19.484375 29.296875 
L 19.484375 0 
L 9.625 0 
z
" id="DejaVuSansMono-50"/>
     </defs>
     <g transform="translate(166.037812 31.711125)scale(0.12 -0.12)">
      <use xlink:href="#DejaVuSansMono-50"/>
     </g>
    </g>
   </g>
   <g id="text_36">
    <g clip-path="url(#p3370368d36)">
     <!-- R -->
     <g transform="translate(389.237812 31.711125)scale(0.12 -0.12)">
      <use xlink:href="#DejaVuSansMono-52"/>
     </g>
    </g>
   </g>
   <g id="text_37">
    <g clip-path="url(#p3370368d36)">
     <!-- K -->
     <defs>
      <path d="M 6.6875 72.90625 
L 16.609375 72.90625 
L 16.609375 40.484375 
L 47.40625 72.90625 
L 58.984375 72.90625 
L 30.609375 43.109375 
L 59.8125 0 
L 47.90625 0 
L 24.125 36.53125 
L 16.609375 28.515625 
L 16.609375 0 
L 6.6875 0 
z
" id="DejaVuSansMono-4b"/>
     </defs>
     <g transform="translate(417.137812 120.415125)scale(0.12 -0.12)">
      <use xlink:href="#DejaVuSansMono-4b"/>
     </g>
    </g>
   </g>
   <g id="text_38">
    <g clip-path="url(#p3370368d36)">
     <!-- L -->
     <g transform="translate(389.237812 120.415125)scale(0.12 -0.12)">
      <use xlink:href="#DejaVuSansMono-4c"/>
     </g>
    </g>
   </g>
   <g id="text_39">
    <g clip-path="url(#p3370368d36)">
     <!-- G -->
     <g transform="translate(368.312812 31.711125)scale(0.12 -0.12)">
      <use xlink:href="#DejaVuSansMono-47"/>
     </g>
    </g>
   </g>
   <g id="text_40">
    <g clip-path="url(#p3370368d36)">
     <!-- R -->
     <g transform="translate(340.412812 31.711125)scale(0.12 -0.12)">
      <use xlink:href="#DejaVuSansMono-52"/>
     </g>
    </g>
   </g>
   <g id="text_41">
    <g clip-path="url(#p3370368d36)">
     <!-- V -->
     <defs>
      <path d="M 30.078125 8.296875 
L 47.21875 72.90625 
L 57.421875 72.90625 
L 36.078125 0 
L 24.125 0 
L 2.78125 72.90625 
L 12.984375 72.90625 
z
" id="DejaVuSansMono-56"/>
     </defs>
     <g transform="translate(284.612812 31.711125)scale(0.12 -0.12)">
      <use xlink:href="#DejaVuSansMono-56"/>
     </g>
    </g>
   </g>
   <g id="text_42">
    <g clip-path="url(#p3370368d36)">
     <!-- R -->
     <g transform="translate(270.662812 31.711125)scale(0.12 -0.12)">
      <use xlink:href="#DejaVuSansMono-52"/>
     </g>
    </g>
   </g>
   <g id="text_43">
    <g clip-path="url(#p3370368d36)">
     <!-- S -->
     <defs>
      <path d="M 49.421875 70.40625 
L 49.421875 60.40625 
Q 44.921875 63.28125 40.40625 64.75 
Q 35.890625 66.21875 31.296875 66.21875 
Q 24.3125 66.21875 20.265625 62.96875 
Q 16.21875 59.71875 16.21875 54.203125 
Q 16.21875 49.359375 18.875 46.8125 
Q 21.53125 44.28125 28.8125 42.578125 
L 33.984375 41.40625 
Q 44.234375 39.015625 48.921875 33.890625 
Q 53.609375 28.765625 53.609375 19.921875 
Q 53.609375 9.515625 47.15625 4.046875 
Q 40.71875 -1.421875 28.421875 -1.421875 
Q 23.296875 -1.421875 18.109375 -0.3125 
Q 12.9375 0.78125 7.71875 2.984375 
L 7.71875 13.484375 
Q 13.328125 9.90625 18.328125 8.25 
Q 23.34375 6.59375 28.421875 6.59375 
Q 35.890625 6.59375 40.03125 9.9375 
Q 44.1875 13.28125 44.1875 19.28125 
Q 44.1875 24.75 41.328125 27.625 
Q 38.484375 30.515625 31.390625 32.078125 
L 26.125 33.296875 
Q 15.96875 35.59375 11.375 40.234375 
Q 6.78125 44.875 6.78125 52.6875 
Q 6.78125 62.453125 13.34375 68.328125 
Q 19.921875 74.21875 30.8125 74.21875 
Q 35.015625 74.21875 39.640625 73.265625 
Q 44.28125 72.3125 49.421875 70.40625 
z
" id="DejaVuSansMono-53"/>
     </defs>
     <g transform="translate(263.687813 76.063125)scale(0.12 -0.12)">
      <use xlink:href="#DejaVuSansMono-53"/>
     </g>
    </g>
   </g>
   <g id="text_44">
    <g clip-path="url(#p3370368d36)">
     <!-- K -->
     <g transform="translate(207.887812 120.415125)scale(0.12 -0.12)">
      <use xlink:href="#DejaVuSansMono-4b"/>
     </g>
    </g>
   </g>
   <g id="text_45">
    <g clip-path="url(#p3370368d36)">
     <!-- Q -->
     <g transform="translate(193.937813 31.711125)scale(0.12 -0.12)">
      <use xlink:href="#DejaVuSansMono-51"/>
     </g>
    </g>
   </g>
   <g id="text_46">
    <g clip-path="url(#p3370368d36)">
     <!-- L -->
     <g transform="translate(277.637812 120.415125)scale(0.12 -0.12)">
      <use xlink:href="#DejaVuSansMono-4c"/>
     </g>
    </g>
   </g>
   <g id="text_47">
    <g clip-path="url(#p3370368d36)">
     <!-- R -->
     <g transform="translate(375.287812 120.415125)scale(0.12 -0.12)">
      <use xlink:href="#DejaVuSansMono-52"/>
     </g>
    </g>
   </g>
   <g id="text_48">
    <g clip-path="url(#p3370368d36)">
     <!-- A -->
     <g transform="translate(235.787812 120.415125)scale(0.12 -0.12)">
      <use xlink:href="#DejaVuSansMono-41"/>
     </g>
    </g>
   </g>
   <g id="text_49">
    <g clip-path="url(#p3370368d36)">
     <!-- S -->
     <g transform="translate(312.512812 31.711125)scale(0.12 -0.12)">
      <use xlink:href="#DejaVuSansMono-53"/>
     </g>
    </g>
   </g>
   <g id="text_50">
    <g clip-path="url(#p3370368d36)">
     <!-- Y -->
     <g transform="translate(410.162812 31.711125)scale(0.12 -0.12)">
      <use xlink:href="#DejaVuSansMono-59"/>
     </g>
    </g>
   </g>
   <g id="text_51">
    <g clip-path="url(#p3370368d36)">
     <!-- E -->
     <g transform="translate(347.387812 120.415125)scale(0.12 -0.12)">
      <use xlink:href="#DejaVuSansMono-45"/>
     </g>
    </g>
   </g>
   <g id="text_52">
    <g clip-path="url(#p3370368d36)">
     <!-- K -->
     <g transform="translate(193.937813 120.415125)scale(0.12 -0.12)">
      <use xlink:href="#DejaVuSansMono-4b"/>
     </g>
    </g>
   </g>
   <g id="text_53">
    <g clip-path="url(#p3370368d36)">
     <!-- T -->
     <g transform="translate(326.462812 31.711125)scale(0.12 -0.12)">
      <use xlink:href="#DejaVuSansMono-54"/>
     </g>
    </g>
   </g>
   <g id="text_54">
    <g clip-path="url(#p3370368d36)">
     <!-- A -->
     <g transform="translate(166.037812 120.415125)scale(0.12 -0.12)">
      <use xlink:href="#DejaVuSansMono-41"/>
     </g>
    </g>
   </g>
   <g id="text_55">
    <g clip-path="url(#p3370368d36)">
     <!-- H -->
     <g transform="translate(333.437812 31.711125)scale(0.12 -0.12)">
      <use xlink:href="#DejaVuSansMono-48"/>
     </g>
    </g>
   </g>
   <g id="text_56">
    <g clip-path="url(#p3370368d36)">
     <!-- G -->
     <g transform="translate(410.162812 120.415125)scale(0.12 -0.12)">
      <use xlink:href="#DejaVuSansMono-47"/>
     </g>
    </g>
   </g>
   <g id="text_57">
    <g clip-path="url(#p3370368d36)">
     <!-- L -->
     <g transform="translate(319.487812 76.063125)scale(0.12 -0.12)">
      <use xlink:href="#DejaVuSansMono-4c"/>
     </g>
    </g>
   </g>
   <g id="text_58">
    <g clip-path="url(#p3370368d36)">
     <!-- R -->
     <g transform="translate(368.312812 120.415125)scale(0.12 -0.12)">
      <use xlink:href="#DejaVuSansMono-52"/>
     </g>
    </g>
   </g>
   <g id="text_59">
    <g clip-path="url(#p3370368d36)">
     <!-- E -->
     <g transform="translate(256.712812 31.711125)scale(0.12 -0.12)">
      <use xlink:href="#DejaVuSansMono-45"/>
     </g>
    </g>
   </g>
   <g id="text_60">
    <g clip-path="url(#p3370368d36)">
     <!-- V -->
     <g transform="translate(249.737812 120.415125)scale(0.12 -0.12)">
      <use xlink:href="#DejaVuSansMono-56"/>
     </g>
    </g>
   </g>
   <g id="text_61">
    <g clip-path="url(#p3370368d36)">
     <!-- D -->
     <defs>
      <path d="M 21.296875 8.109375 
Q 33.734375 8.109375 38.671875 14.234375 
Q 43.609375 20.359375 43.609375 36.375 
Q 43.609375 52.546875 38.703125 58.671875 
Q 33.796875 64.796875 21.296875 64.796875 
L 16.609375 64.796875 
L 16.609375 8.109375 
z
M 21.484375 72.90625 
Q 38.1875 72.90625 46.09375 64.015625 
Q 54 55.125 54 36.375 
Q 54 17.71875 46.09375 8.859375 
Q 38.1875 0 21.484375 0 
L 6.6875 0 
L 6.6875 72.90625 
z
" id="DejaVuSansMono-44"/>
     </defs>
     <g transform="translate(354.362812 31.711125)scale(0.12 -0.12)">
      <use xlink:href="#DejaVuSansMono-44"/>
     </g>
    </g>
   </g>
   <g id="text_62">
    <g clip-path="url(#p3370368d36)">
     <!-- E -->
     <g transform="translate(221.837812 31.711125)scale(0.12 -0.12)">
      <use xlink:href="#DejaVuSansMono-45"/>
     </g>
    </g>
   </g>
   <g id="text_63">
    <g clip-path="url(#p3370368d36)">
     <!-- V -->
     <g transform="translate(340.412812 120.415125)scale(0.12 -0.12)">
      <use xlink:href="#DejaVuSansMono-56"/>
     </g>
    </g>
   </g>
   <g id="text_64">
    <g clip-path="url(#p3370368d36)">
     <!-- D -->
     <g transform="translate(242.762812 31.711125)scale(0.12 -0.12)">
      <use xlink:href="#DejaVuSansMono-44"/>
     </g>
    </g>
   </g>
   <g id="text_65">
    <g clip-path="url(#p3370368d36)">
     <!-- Y -->
     <g transform="translate(298.562813 120.415125)scale(0.12 -0.12)">
      <use xlink:href="#DejaVuSansMono-59"/>
     </g>
    </g>
   </g>
   <g id="text_66">
    <g clip-path="url(#p3370368d36)">
     <!-- L -->
     <g transform="translate(382.262812 31.711125)scale(0.12 -0.12)">
      <use xlink:href="#DejaVuSansMono-4c"/>
     </g>
    </g>
   </g>
   <g id="text_67">
    <g clip-path="url(#p3370368d36)">
     <!-- V -->
     <g transform="translate(298.562813 76.063125)scale(0.12 -0.12)">
      <use xlink:href="#DejaVuSansMono-56"/>
     </g>
    </g>
   </g>
   <g id="text_68">
    <g clip-path="url(#p3370368d36)">
     <!-- E -->
     <g transform="translate(221.837812 120.415125)scale(0.12 -0.12)">
      <use xlink:href="#DejaVuSansMono-45"/>
     </g>
    </g>
   </g>
   <g id="text_69">
    <g clip-path="url(#p3370368d36)">
     <!-- K -->
     <g transform="translate(277.637812 31.711125)scale(0.12 -0.12)">
      <use xlink:href="#DejaVuSansMono-4b"/>
     </g>
    </g>
   </g>
   <g id="text_70">
    <g clip-path="url(#p3370368d36)">
     <!-- T -->
     <g transform="translate(179.987812 120.415125)scale(0.12 -0.12)">
      <use xlink:href="#DejaVuSansMono-54"/>
     </g>
    </g>
   </g>
   <g id="text_71">
    <g clip-path="url(#p3370368d36)">
     <!-- E -->
     <g transform="translate(186.962812 31.711125)scale(0.12 -0.12)">
      <use xlink:href="#DejaVuSansMono-45"/>
     </g>
    </g>
   </g>
   <g id="text_72">
    <g clip-path="url(#p3370368d36)">
     <!-- L -->
     <g transform="translate(270.662812 76.063125)scale(0.12 -0.12)">
      <use xlink:href="#DejaVuSansMono-4c"/>
     </g>
    </g>
   </g>
   <g id="text_73">
    <g clip-path="url(#p3370368d36)">
     <!-- N -->
     <g transform="translate(284.612812 76.063125)scale(0.12 -0.12)">
      <use xlink:href="#DejaVuSansMono-4e"/>
     </g>
    </g>
   </g>
   <g id="text_74">
    <g clip-path="url(#p3370368d36)">
     <!-- K -->
     <g transform="translate(291.587812 31.711125)scale(0.12 -0.12)">
      <use xlink:href="#DejaVuSansMono-4b"/>
     </g>
    </g>
   </g>
   <g id="text_75">
    <g clip-path="url(#p3370368d36)">
     <!-- E -->
     <g transform="translate(200.912812 31.711125)scale(0.12 -0.12)">
      <use xlink:href="#DejaVuSansMono-45"/>
     </g>
    </g>
   </g>
   <g id="text_76">
    <g clip-path="url(#p3370368d36)">
     <!-- A -->
     <g transform="translate(291.587812 120.415125)scale(0.12 -0.12)">
      <use xlink:href="#DejaVuSansMono-41"/>
     </g>
    </g>
   </g>
   <g id="text_77">
    <g clip-path="url(#p3370368d36)">
     <!-- L -->
     <g transform="translate(361.337812 31.711125)scale(0.12 -0.12)">
      <use xlink:href="#DejaVuSansMono-4c"/>
     </g>
    </g>
   </g>
   <g id="text_78">
    <g clip-path="url(#p3370368d36)">
     <!-- G -->
     <g transform="translate(396.212812 31.711125)scale(0.12 -0.12)">
      <use xlink:href="#DejaVuSansMono-47"/>
     </g>
    </g>
   </g>
   <g id="text_79">
    <g clip-path="url(#p3370368d36)">
     <!-- E -->
     <g transform="translate(263.687813 120.415125)scale(0.12 -0.12)">
      <use xlink:href="#DejaVuSansMono-45"/>
     </g>
    </g>
   </g>
   <g id="text_80">
    <g clip-path="url(#p3370368d36)">
     <!-- T -->
     <g transform="translate(291.587812 76.063125)scale(0.12 -0.12)">
      <use xlink:href="#DejaVuSansMono-54"/>
     </g>
    </g>
   </g>
   <g id="text_81">
    <g clip-path="url(#p3370368d36)">
     <!-- V -->
     <g transform="translate(347.387812 31.711125)scale(0.12 -0.12)">
      <use xlink:href="#DejaVuSansMono-56"/>
     </g>
    </g>
   </g>
   <g id="text_82">
    <g clip-path="url(#p3370368d36)">
     <!-- W -->
     <g transform="translate(173.012812 31.711125)scale(0.12 -0.12)">
      <use xlink:href="#DejaVuSansMono-57"/>
     </g>
    </g>
   </g>
   <g id="text_83">
    <g clip-path="url(#p3370368d36)">
     <!-- P -->
     <g transform="translate(214.862812 31.711125)scale(0.12 -0.12)">
      <use xlink:href="#DejaVuSansMono-50"/>
     </g>
    </g>
   </g>
   <g id="text_84">
    <!-- MHCa1 -->
    <defs>
     <path d="M 9.8125 72.90625 
L 24.515625 72.90625 
L 43.109375 23.296875 
L 61.8125 72.90625 
L 76.515625 72.90625 
L 76.515625 0 
L 66.890625 0 
L 66.890625 64.015625 
L 48.09375 14.015625 
L 38.1875 14.015625 
L 19.390625 64.015625 
L 19.390625 0 
L 9.8125 0 
z
" id="DejaVuSans-4d"/>
     <path d="M 9.8125 72.90625 
L 19.671875 72.90625 
L 19.671875 43.015625 
L 55.515625 43.015625 
L 55.515625 72.90625 
L 65.375 72.90625 
L 65.375 0 
L 55.515625 0 
L 55.515625 34.71875 
L 19.671875 34.71875 
L 19.671875 0 
L 9.8125 0 
z
" id="DejaVuSans-48"/>
     <path d="M 64.40625 67.28125 
L 64.40625 56.890625 
Q 59.421875 61.53125 53.78125 63.8125 
Q 48.140625 66.109375 41.796875 66.109375 
Q 29.296875 66.109375 22.65625 58.46875 
Q 16.015625 50.828125 16.015625 36.375 
Q 16.015625 21.96875 22.65625 14.328125 
Q 29.296875 6.6875 41.796875 6.6875 
Q 48.140625 6.6875 53.78125 8.984375 
Q 59.421875 11.28125 64.40625 15.921875 
L 64.40625 5.609375 
Q 59.234375 2.09375 53.4375 0.328125 
Q 47.65625 -1.421875 41.21875 -1.421875 
Q 24.65625 -1.421875 15.125 8.703125 
Q 5.609375 18.84375 5.609375 36.375 
Q 5.609375 53.953125 15.125 64.078125 
Q 24.65625 74.21875 41.21875 74.21875 
Q 47.75 74.21875 53.53125 72.484375 
Q 59.328125 70.75 64.40625 67.28125 
z
" id="DejaVuSans-43"/>
     <path d="M 34.28125 27.484375 
Q 23.390625 27.484375 19.1875 25 
Q 14.984375 22.515625 14.984375 16.5 
Q 14.984375 11.71875 18.140625 8.90625 
Q 21.296875 6.109375 26.703125 6.109375 
Q 34.1875 6.109375 38.703125 11.40625 
Q 43.21875 16.703125 43.21875 25.484375 
L 43.21875 27.484375 
z
M 52.203125 31.203125 
L 52.203125 0 
L 43.21875 0 
L 43.21875 8.296875 
Q 40.140625 3.328125 35.546875 0.953125 
Q 30.953125 -1.421875 24.3125 -1.421875 
Q 15.921875 -1.421875 10.953125 3.296875 
Q 6 8.015625 6 15.921875 
Q 6 25.140625 12.171875 29.828125 
Q 18.359375 34.515625 30.609375 34.515625 
L 43.21875 34.515625 
L 43.21875 35.40625 
Q 43.21875 41.609375 39.140625 45 
Q 35.0625 48.390625 27.6875 48.390625 
Q 23 48.390625 18.546875 47.265625 
Q 14.109375 46.140625 10.015625 43.890625 
L 10.015625 52.203125 
Q 14.9375 54.109375 19.578125 55.046875 
Q 24.21875 56 28.609375 56 
Q 40.484375 56 46.34375 49.84375 
Q 52.203125 43.703125 52.203125 31.203125 
z
" id="DejaVuSans-61"/>
     <path d="M 12.40625 8.296875 
L 28.515625 8.296875 
L 28.515625 63.921875 
L 10.984375 60.40625 
L 10.984375 69.390625 
L 28.421875 72.90625 
L 38.28125 72.90625 
L 38.28125 8.296875 
L 54.390625 8.296875 
L 54.390625 0 
L 12.40625 0 
z
" id="DejaVuSans-31"/>
    </defs>
    <g transform="translate(284.513438 21.7152)scale(0.06 -0.06)">
     <use xlink:href="#DejaVuSans-4d"/>
     <use x="86.279297" xlink:href="#DejaVuSans-48"/>
     <use x="161.474609" xlink:href="#DejaVuSans-43"/>
     <use x="231.298828" xlink:href="#DejaVuSans-61"/>
     <use x="292.578125" xlink:href="#DejaVuSans-31"/>
    </g>
   </g>
   <g id="text_85">
    <!-- 50 -->
    <defs>
     <path d="M 10.796875 72.90625 
L 49.515625 72.90625 
L 49.515625 64.59375 
L 19.828125 64.59375 
L 19.828125 46.734375 
Q 21.96875 47.46875 24.109375 47.828125 
Q 26.265625 48.1875 28.421875 48.1875 
Q 40.625 48.1875 47.75 41.5 
Q 54.890625 34.8125 54.890625 23.390625 
Q 54.890625 11.625 47.5625 5.09375 
Q 40.234375 -1.421875 26.90625 -1.421875 
Q 22.3125 -1.421875 17.546875 -0.640625 
Q 12.796875 0.140625 7.71875 1.703125 
L 7.71875 11.625 
Q 12.109375 9.234375 16.796875 8.0625 
Q 21.484375 6.890625 26.703125 6.890625 
Q 35.15625 6.890625 40.078125 11.328125 
Q 45.015625 15.765625 45.015625 23.390625 
Q 45.015625 31 40.078125 35.4375 
Q 35.15625 39.890625 26.703125 39.890625 
Q 22.75 39.890625 18.8125 39.015625 
Q 14.890625 38.140625 10.796875 36.28125 
z
" id="DejaVuSans-35"/>
     <path d="M 31.78125 66.40625 
Q 24.171875 66.40625 20.328125 58.90625 
Q 16.5 51.421875 16.5 36.375 
Q 16.5 21.390625 20.328125 13.890625 
Q 24.171875 6.390625 31.78125 6.390625 
Q 39.453125 6.390625 43.28125 13.890625 
Q 47.125 21.390625 47.125 36.375 
Q 47.125 51.421875 43.28125 58.90625 
Q 39.453125 66.40625 31.78125 66.40625 
z
M 31.78125 74.21875 
Q 44.046875 74.21875 50.515625 64.515625 
Q 56.984375 54.828125 56.984375 36.375 
Q 56.984375 17.96875 50.515625 8.265625 
Q 44.046875 -1.421875 31.78125 -1.421875 
Q 19.53125 -1.421875 13.0625 8.265625 
Q 6.59375 17.96875 6.59375 36.375 
Q 6.59375 54.828125 13.0625 64.515625 
Q 19.53125 74.21875 31.78125 74.21875 
z
" id="DejaVuSans-30"/>
    </defs>
    <g transform="translate(165.8325 21.7152)scale(0.06 -0.06)">
     <use xlink:href="#DejaVuSans-35"/>
     <use x="63.623047" xlink:href="#DejaVuSans-30"/>
    </g>
   </g>
   <g id="text_86">
    <!-- 86 -->
    <defs>
     <path d="M 31.78125 34.625 
Q 24.75 34.625 20.71875 30.859375 
Q 16.703125 27.09375 16.703125 20.515625 
Q 16.703125 13.921875 20.71875 10.15625 
Q 24.75 6.390625 31.78125 6.390625 
Q 38.8125 6.390625 42.859375 10.171875 
Q 46.921875 13.96875 46.921875 20.515625 
Q 46.921875 27.09375 42.890625 30.859375 
Q 38.875 34.625 31.78125 34.625 
z
M 21.921875 38.8125 
Q 15.578125 40.375 12.03125 44.71875 
Q 8.5 49.078125 8.5 55.328125 
Q 8.5 64.0625 14.71875 69.140625 
Q 20.953125 74.21875 31.78125 74.21875 
Q 42.671875 74.21875 48.875 69.140625 
Q 55.078125 64.0625 55.078125 55.328125 
Q 55.078125 49.078125 51.53125 44.71875 
Q 48 40.375 41.703125 38.8125 
Q 48.828125 37.15625 52.796875 32.3125 
Q 56.78125 27.484375 56.78125 20.515625 
Q 56.78125 9.90625 50.3125 4.234375 
Q 43.84375 -1.421875 31.78125 -1.421875 
Q 19.734375 -1.421875 13.25 4.234375 
Q 6.78125 9.90625 6.78125 20.515625 
Q 6.78125 27.484375 10.78125 32.3125 
Q 14.796875 37.15625 21.921875 38.8125 
z
M 18.3125 54.390625 
Q 18.3125 48.734375 21.84375 45.5625 
Q 25.390625 42.390625 31.78125 42.390625 
Q 38.140625 42.390625 41.71875 45.5625 
Q 45.3125 48.734375 45.3125 54.390625 
Q 45.3125 60.0625 41.71875 63.234375 
Q 38.140625 66.40625 31.78125 66.40625 
Q 25.390625 66.40625 21.84375 63.234375 
Q 18.3125 60.0625 18.3125 54.390625 
z
" id="DejaVuSans-38"/>
     <path d="M 33.015625 40.375 
Q 26.375 40.375 22.484375 35.828125 
Q 18.609375 31.296875 18.609375 23.390625 
Q 18.609375 15.53125 22.484375 10.953125 
Q 26.375 6.390625 33.015625 6.390625 
Q 39.65625 6.390625 43.53125 10.953125 
Q 47.40625 15.53125 47.40625 23.390625 
Q 47.40625 31.296875 43.53125 35.828125 
Q 39.65625 40.375 33.015625 40.375 
z
M 52.59375 71.296875 
L 52.59375 62.3125 
Q 48.875 64.0625 45.09375 64.984375 
Q 41.3125 65.921875 37.59375 65.921875 
Q 27.828125 65.921875 22.671875 59.328125 
Q 17.53125 52.734375 16.796875 39.40625 
Q 19.671875 43.65625 24.015625 45.921875 
Q 28.375 48.1875 33.59375 48.1875 
Q 44.578125 48.1875 50.953125 41.515625 
Q 57.328125 34.859375 57.328125 23.390625 
Q 57.328125 12.15625 50.6875 5.359375 
Q 44.046875 -1.421875 33.015625 -1.421875 
Q 20.359375 -1.421875 13.671875 8.265625 
Q 6.984375 17.96875 6.984375 36.375 
Q 6.984375 53.65625 15.1875 63.9375 
Q 23.390625 74.21875 37.203125 74.21875 
Q 40.921875 74.21875 44.703125 73.484375 
Q 48.484375 72.75 52.59375 71.296875 
z
" id="DejaVuSans-36"/>
    </defs>
    <g transform="translate(416.9325 21.7152)scale(0.06 -0.06)">
     <use xlink:href="#DejaVuSans-38"/>
     <use x="63.623047" xlink:href="#DejaVuSans-36"/>
    </g>
   </g>
   <g id="text_87">
    <!-- MHCa2 -->
    <defs>
     <path d="M 19.1875 8.296875 
L 53.609375 8.296875 
L 53.609375 0 
L 7.328125 0 
L 7.328125 8.296875 
Q 12.9375 14.109375 22.625 23.890625 
Q 32.328125 33.6875 34.8125 36.53125 
Q 39.546875 41.84375 41.421875 45.53125 
Q 43.3125 49.21875 43.3125 52.78125 
Q 43.3125 58.59375 39.234375 62.25 
Q 35.15625 65.921875 28.609375 65.921875 
Q 23.96875 65.921875 18.8125 64.3125 
Q 13.671875 62.703125 7.8125 59.421875 
L 7.8125 69.390625 
Q 13.765625 71.78125 18.9375 73 
Q 24.125 74.21875 28.421875 74.21875 
Q 39.75 74.21875 46.484375 68.546875 
Q 53.21875 62.890625 53.21875 53.421875 
Q 53.21875 48.921875 51.53125 44.890625 
Q 49.859375 40.875 45.40625 35.40625 
Q 44.1875 33.984375 37.640625 27.21875 
Q 31.109375 20.453125 19.1875 8.296875 
z
" id="DejaVuSans-32"/>
    </defs>
    <g transform="translate(284.513438 125.9424)scale(0.06 -0.06)">
     <use xlink:href="#DejaVuSans-4d"/>
     <use x="86.279297" xlink:href="#DejaVuSans-48"/>
     <use x="161.474609" xlink:href="#DejaVuSans-43"/>
     <use x="231.298828" xlink:href="#DejaVuSans-61"/>
     <use x="292.578125" xlink:href="#DejaVuSans-32"/>
    </g>
   </g>
   <g id="text_88">
    <!-- 140 -->
    <defs>
     <path d="M 37.796875 64.3125 
L 12.890625 25.390625 
L 37.796875 25.390625 
z
M 35.203125 72.90625 
L 47.609375 72.90625 
L 47.609375 25.390625 
L 58.015625 25.390625 
L 58.015625 17.1875 
L 47.609375 17.1875 
L 47.609375 0 
L 37.796875 0 
L 37.796875 17.1875 
L 4.890625 17.1875 
L 4.890625 26.703125 
z
" id="DejaVuSans-34"/>
    </defs>
    <g transform="translate(163.92375 125.9424)scale(0.06 -0.06)">
     <use xlink:href="#DejaVuSans-31"/>
     <use x="63.623047" xlink:href="#DejaVuSans-34"/>
     <use x="127.246094" xlink:href="#DejaVuSans-30"/>
    </g>
   </g>
   <g id="text_89">
    <!-- 176 -->
    <defs>
     <path d="M 8.203125 72.90625 
L 55.078125 72.90625 
L 55.078125 68.703125 
L 28.609375 0 
L 18.3125 0 
L 43.21875 64.59375 
L 8.203125 64.59375 
z
" id="DejaVuSans-37"/>
    </defs>
    <g transform="translate(415.02375 125.9424)scale(0.06 -0.06)">
     <use xlink:href="#DejaVuSans-31"/>
     <use x="63.623047" xlink:href="#DejaVuSans-37"/>
     <use x="127.246094" xlink:href="#DejaVuSans-36"/>
    </g>
   </g>
  </g>
 </g>
 <defs>
  <clipPath id="p3370368d36">
   <rect height="110.88" width="446.4" x="72" y="17.28"/>
  </clipPath>
 </defs>
</svg>
